{
	"asset":{
		"generator":"Khronos glTF Blender I/O v4.0.44",
		"version":"2.0"
	},
	"scene":0,
	"scenes":[
		{
			"name":"Scene",
			"nodes":[
				1
			]
		}
	],
	"nodes":[
		{
			"mesh":0,
			"name":"Tent",
			"rotation":[
				-0.7071069478988647,
				0,
				0,
				0.7071066498756409
			],
			"scale":[
				348.6058349609375,
				348.6058044433594,
				348.6058044433594
			]
		},
		{
			"children":[
				0
			],
			"name":"RootNode"
		}
	],
	"materials":[
		{
			"name":"DarkWood",
			"pbrMetallicRoughness":{
				"baseColorFactor":[
					0.11390679329633713,
					0.06979499012231827,
					0.035405322909355164,
					1
				],
				"metallicFactor":0.4000000059604645,
				"roughnessFactor":0.41508710384368896
			}
		},
		{
			"name":"Black",
			"pbrMetallicRoughness":{
				"baseColorFactor":[
					0.02648109197616577,
					0.02648109197616577,
					0.02648109197616577,
					1
				],
				"metallicFactor":0.4000000059604645,
				"roughnessFactor":0.41508710384368896
			}
		},
		{
			"name":"Green",
			"pbrMetallicRoughness":{
				"baseColorFactor":[
					0.048574451357126236,
					0.0404079407453537,
					0.01510690338909626,
					1
				],
				"metallicFactor":0.4000000059604645,
				"roughnessFactor":0.41508710384368896
			}
		},
		{
			"name":"LightGreen",
			"pbrMetallicRoughness":{
				"baseColorFactor":[
					0.08522485941648483,
					0.07335060834884644,
					0.03187347203493118,
					1
				],
				"metallicFactor":0.4000000059604645,
				"roughnessFactor":0.41508710384368896
			}
		}
	],
	"meshes":[
		{
			"name":"Tent",
			"primitives":[
				{
					"attributes":{
						"POSITION":0,
						"NORMAL":1
					},
					"indices":2,
					"material":0
				},
				{
					"attributes":{
						"POSITION":3,
						"NORMAL":4
					},
					"indices":5,
					"material":1
				},
				{
					"attributes":{
						"POSITION":6,
						"NORMAL":7
					},
					"indices":8,
					"material":2
				},
				{
					"attributes":{
						"POSITION":9,
						"NORMAL":10
					},
					"indices":11,
					"material":3
				}
			]
		}
	],
	"accessors":[
		{
			"bufferView":0,
			"componentType":5126,
			"count":652,
			"max":[
				0.020912572741508484,
				0.035668063908815384,
				0.029111890122294426
			],
			"min":[
				-0.020912572741508484,
				-0.03566807135939598,
				-0.0005044853314757347
			],
			"type":"VEC3"
		},
		{
			"bufferView":1,
			"componentType":5126,
			"count":652,
			"type":"VEC3"
		},
		{
			"bufferView":2,
			"componentType":5123,
			"count":1056,
			"type":"SCALAR"
		},
		{
			"bufferView":3,
			"componentType":5126,
			"count":64,
			"max":[
				0.020823057740926743,
				0.03547447919845581,
				0.028322666883468628
			],
			"min":[
				-0.020823057740926743,
				-0.03547448664903641,
				0.0005752577562816441
			],
			"type":"VEC3"
		},
		{
			"bufferView":4,
			"componentType":5126,
			"count":64,
			"type":"VEC3"
		},
		{
			"bufferView":5,
			"componentType":5123,
			"count":96,
			"type":"SCALAR"
		},
		{
			"bufferView":6,
			"componentType":5126,
			"count":374,
			"max":[
				0.014300770126283169,
				0.01790871098637581,
				0.027355773374438286
			],
			"min":[
				-0.014300770126283169,
				-0.017908718436956406,
				0.00020700058666989207
			],
			"type":"VEC3"
		},
		{
			"bufferView":7,
			"componentType":5126,
			"count":374,
			"type":"VEC3"
		},
		{
			"bufferView":8,
			"componentType":5123,
			"count":570,
			"type":"SCALAR"
		},
		{
			"bufferView":9,
			"componentType":5126,
			"count":398,
			"max":[
				0.015644829720258713,
				0.01790871098637581,
				0.027355773374438286
			],
			"min":[
				-0.015644829720258713,
				-0.017908718436956406,
				0.000621700775809586
			],
			"type":"VEC3"
		},
		{
			"bufferView":10,
			"componentType":5126,
			"count":398,
			"type":"VEC3"
		},
		{
			"bufferView":11,
			"componentType":5123,
			"count":630,
			"type":"SCALAR"
		}
	],
	"bufferViews":[
		{
			"buffer":0,
			"byteLength":7824,
			"byteOffset":0,
			"target":34962
		},
		{
			"buffer":0,
			"byteLength":7824,
			"byteOffset":7824,
			"target":34962
		},
		{
			"buffer":0,
			"byteLength":2112,
			"byteOffset":15648,
			"target":34963
		},
		{
			"buffer":0,
			"byteLength":768,
			"byteOffset":17760,
			"target":34962
		},
		{
			"buffer":0,
			"byteLength":768,
			"byteOffset":18528,
			"target":34962
		},
		{
			"buffer":0,
			"byteLength":192,
			"byteOffset":19296,
			"target":34963
		},
		{
			"buffer":0,
			"byteLength":4488,
			"byteOffset":19488,
			"target":34962
		},
		{
			"buffer":0,
			"byteLength":4488,
			"byteOffset":23976,
			"target":34962
		},
		{
			"buffer":0,
			"byteLength":1140,
			"byteOffset":28464,
			"target":34963
		},
		{
			"buffer":0,
			"byteLength":4776,
			"byteOffset":29604,
			"target":34962
		},
		{
			"buffer":0,
			"byteLength":4776,
			"byteOffset":34380,
			"target":34962
		},
		{
			"buffer":0,
			"byteLength":1260,
			"byteOffset":39156,
			"target":34963
		}
	],
	"buffers":[
		{
			"byteLength":40416,
			"uri":"greentent.bin"
		}
	]
}
