{
	"asset":{
		"generator":"Khronos glTF Blender I/O v4.0.44",
		"version":"2.0"
	},
	"scene":0,
	"scenes":[
		{
			"name":"Scene",
			"nodes":[
				0
			]
		}
	],
	"nodes":[
		{
			"mesh":0,
			"name":"campfire_01_Plane.003"
		}
	],
	"materials":[
		{
			"name":"FF5722",
			"pbrMetallicRoughness":{
				"baseColorFactor":[
					1,
					0.09530699998140335,
					0.015995999798178673,
					1
				],
				"metallicFactor":0,
				"roughnessFactor":0.9058823585510254
			}
		},
		{
			"name":"78909C",
			"pbrMetallicRoughness":{
				"baseColorFactor":[
					0.18782100081443787,
					0.27889400720596313,
					0.3324519991874695,
					1
				],
				"metallicFactor":0,
				"roughnessFactor":0.9058823585510254
			}
		},
		{
			"name":"FFCC88",
			"pbrMetallicRoughness":{
				"baseColorFactor":[
					1,
					0.6038269996643066,
					0.24620099365711212,
					1
				],
				"metallicFactor":0,
				"roughnessFactor":0.9058823585510254
			}
		},
		{
			"name":"FFEB3B",
			"pbrMetallicRoughness":{
				"baseColorFactor":[
					1,
					0.8307700157165527,
					0.04373500123620033,
					1
				],
				"metallicFactor":0,
				"roughnessFactor":0.9058823585510254
			}
		},
		{
			"name":"795548",
			"pbrMetallicRoughness":{
				"baseColorFactor":[
					0.19120199978351593,
					0.09084200114011765,
					0.06480299681425095,
					1
				],
				"metallicFactor":0,
				"roughnessFactor":0.9058823585510254
			}
		},
		{
			"name":"CFD8DC",
			"pbrMetallicRoughness":{
				"baseColorFactor":[
					0.623960018157959,
					0.6866850256919861,
					0.715694010257721,
					1
				],
				"metallicFactor":0,
				"roughnessFactor":0.9058823585510254
			}
		}
	],
	"meshes":[
		{
			"name":"campfire_01_Plane.003-Mesh",
			"primitives":[
				{
					"attributes":{
						"POSITION":0,
						"NORMAL":1,
						"TEXCOORD_0":2
					},
					"indices":3,
					"material":0
				},
				{
					"attributes":{
						"POSITION":4,
						"NORMAL":5,
						"TEXCOORD_0":6
					},
					"indices":7,
					"material":1
				},
				{
					"attributes":{
						"POSITION":8,
						"NORMAL":9,
						"TEXCOORD_0":10
					},
					"indices":11,
					"material":2
				},
				{
					"attributes":{
						"POSITION":12,
						"NORMAL":13,
						"TEXCOORD_0":14
					},
					"indices":15,
					"material":3
				},
				{
					"attributes":{
						"POSITION":16,
						"NORMAL":17,
						"TEXCOORD_0":18
					},
					"indices":19,
					"material":4
				},
				{
					"attributes":{
						"POSITION":20,
						"NORMAL":21,
						"TEXCOORD_0":22
					},
					"indices":23,
					"material":5
				}
			]
		}
	],
	"accessors":[
		{
			"bufferView":0,
			"componentType":5126,
			"count":60,
			"max":[
				0.08351200073957443,
				5.02351713180542,
				0.9086560010910034
			],
			"min":[
				-0.4136880040168762,
				1.7878910303115845,
				-1.1766959428787231
			],
			"type":"VEC3"
		},
		{
			"bufferView":1,
			"componentType":5126,
			"count":60,
			"type":"VEC3"
		},
		{
			"bufferView":2,
			"componentType":5126,
			"count":60,
			"type":"VEC2"
		},
		{
			"bufferView":3,
			"componentType":5123,
			"count":168,
			"type":"SCALAR"
		},
		{
			"bufferView":4,
			"componentType":5126,
			"count":832,
			"max":[
				2.4329888820648193,
				1.1032650470733643,
				2.4772839546203613
			],
			"min":[
				-3.009511947631836,
				-0.35050201416015625,
				-2.6796000003814697
			],
			"type":"VEC3"
		},
		{
			"bufferView":5,
			"componentType":5126,
			"count":832,
			"type":"VEC3"
		},
		{
			"bufferView":6,
			"componentType":5126,
			"count":832,
			"type":"VEC2"
		},
		{
			"bufferView":7,
			"componentType":5123,
			"count":1248,
			"type":"SCALAR"
		},
		{
			"bufferView":8,
			"componentType":5126,
			"count":69,
			"max":[
				1.056434988975525,
				2.2773640155792236,
				1.357300043106079
			],
			"min":[
				-1.2167240381240845,
				0.1502400040626526,
				-1.2868419885635376
			],
			"type":"VEC3"
		},
		{
			"bufferView":9,
			"componentType":5126,
			"count":69,
			"type":"VEC3"
		},
		{
			"bufferView":10,
			"componentType":5126,
			"count":69,
			"type":"VEC2"
		},
		{
			"bufferView":11,
			"componentType":5123,
			"count":144,
			"type":"SCALAR"
		},
		{
			"bufferView":12,
			"componentType":5126,
			"count":488,
			"max":[
				1.9014699459075928,
				7.520224094390869,
				2.3510570526123047
			],
			"min":[
				-2.4110519886016846,
				1.1755969524383545,
				-2.628896951675415
			],
			"type":"VEC3"
		},
		{
			"bufferView":13,
			"componentType":5126,
			"count":488,
			"type":"VEC3"
		},
		{
			"bufferView":14,
			"componentType":5126,
			"count":488,
			"type":"VEC2"
		},
		{
			"bufferView":15,
			"componentType":5123,
			"count":720,
			"type":"SCALAR"
		},
		{
			"bufferView":16,
			"componentType":5126,
			"count":546,
			"max":[
				1.188161015510559,
				2.396538019180298,
				1.430866003036499
			],
			"min":[
				-1.777243971824646,
				0.010506999678909779,
				-1.4528570175170898
			],
			"type":"VEC3"
		},
		{
			"bufferView":17,
			"componentType":5126,
			"count":546,
			"type":"VEC3"
		},
		{
			"bufferView":18,
			"componentType":5126,
			"count":546,
			"type":"VEC2"
		},
		{
			"bufferView":19,
			"componentType":5123,
			"count":912,
			"type":"SCALAR"
		},
		{
			"bufferView":20,
			"componentType":5126,
			"count":256,
			"max":[
				2.0554380416870117,
				1.0251359939575195,
				2.055280923843384
			],
			"min":[
				-2.684134006500244,
				-0.2723749876022339,
				-2.3708269596099854
			],
			"type":"VEC3"
		},
		{
			"bufferView":21,
			"componentType":5126,
			"count":256,
			"type":"VEC3"
		},
		{
			"bufferView":22,
			"componentType":5126,
			"count":256,
			"type":"VEC2"
		},
		{
			"bufferView":23,
			"componentType":5123,
			"count":384,
			"type":"SCALAR"
		}
	],
	"bufferViews":[
		{
			"buffer":0,
			"byteLength":720,
			"byteOffset":0,
			"target":34962
		},
		{
			"buffer":0,
			"byteLength":720,
			"byteOffset":720,
			"target":34962
		},
		{
			"buffer":0,
			"byteLength":480,
			"byteOffset":1440,
			"target":34962
		},
		{
			"buffer":0,
			"byteLength":336,
			"byteOffset":1920,
			"target":34963
		},
		{
			"buffer":0,
			"byteLength":9984,
			"byteOffset":2256,
			"target":34962
		},
		{
			"buffer":0,
			"byteLength":9984,
			"byteOffset":12240,
			"target":34962
		},
		{
			"buffer":0,
			"byteLength":6656,
			"byteOffset":22224,
			"target":34962
		},
		{
			"buffer":0,
			"byteLength":2496,
			"byteOffset":28880,
			"target":34963
		},
		{
			"buffer":0,
			"byteLength":828,
			"byteOffset":31376,
			"target":34962
		},
		{
			"buffer":0,
			"byteLength":828,
			"byteOffset":32204,
			"target":34962
		},
		{
			"buffer":0,
			"byteLength":552,
			"byteOffset":33032,
			"target":34962
		},
		{
			"buffer":0,
			"byteLength":288,
			"byteOffset":33584,
			"target":34963
		},
		{
			"buffer":0,
			"byteLength":5856,
			"byteOffset":33872,
			"target":34962
		},
		{
			"buffer":0,
			"byteLength":5856,
			"byteOffset":39728,
			"target":34962
		},
		{
			"buffer":0,
			"byteLength":3904,
			"byteOffset":45584,
			"target":34962
		},
		{
			"buffer":0,
			"byteLength":1440,
			"byteOffset":49488,
			"target":34963
		},
		{
			"buffer":0,
			"byteLength":6552,
			"byteOffset":50928,
			"target":34962
		},
		{
			"buffer":0,
			"byteLength":6552,
			"byteOffset":57480,
			"target":34962
		},
		{
			"buffer":0,
			"byteLength":4368,
			"byteOffset":64032,
			"target":34962
		},
		{
			"buffer":0,
			"byteLength":1824,
			"byteOffset":68400,
			"target":34963
		},
		{
			"buffer":0,
			"byteLength":3072,
			"byteOffset":70224,
			"target":34962
		},
		{
			"buffer":0,
			"byteLength":3072,
			"byteOffset":73296,
			"target":34962
		},
		{
			"buffer":0,
			"byteLength":2048,
			"byteOffset":76368,
			"target":34962
		},
		{
			"buffer":0,
			"byteLength":768,
			"byteOffset":78416,
			"target":34963
		}
	],
	"buffers":[
		{
			"byteLength":79184,
			"uri":"caravan.bin"
		}
	]
}
