{"accessors" : [{"bufferView" : 0, "byteOffset" : 0, "componentType" : 5123, "count" : 1443, "type" : "SCALAR", "max" : [1425], "min" : [0]}, {"bufferView" : 1, "byteOffset" : 0, "componentType" : 5126, "count" : 1426, "type" : "VEC3", "max" : [0.7391759753227234, 0.982446014881134, 0.7320460081100464], "min" : [-0.6621609926223755, -0.5865470170974731, -0.7483829855918884], "name" : "POSITION"}, {"bufferView" : 1, "byteOffset" : 12, "componentType" : 5126, "count" : 1426, "type" : "VEC2", "max" : [0.988099992275238, 0.988099992275238], "min" : [0.011900000274181366, 0.011900007724761963], "name" : "TEXCOORD_0"}, {"bufferView" : 1, "byteOffset" : 20, "componentType" : 5126, "count" : 1426, "type" : "VEC3", "max" : [0.9968984723091125, 0.9980672597885132, 0.9982206225395203], "min" : [-0.9997001886367798, -0.9983046054840088, -0.997200608253479], "name" : "NORMAL"}], "asset" : {"generator" : "Aspose.3D 24.1.0", "version" : "2.0"}, "buffers" : [{"uri" : "data:application/octet-stream;base64,", "byteLength" : 49072}], "bufferViews" : [{"buffer" : 0, "byteOffset" : 0, "byteLength" : 2888, "target" : 34963}, {"buffer" : 0, "byteOffset" : 2892, "byteLength" : 46176, "byteStride" : 32, "target" : 34962}], "images" : [{"uri" : "data:image/png;base64,"}], "materials" : [{"name" : "None", "pbrMetallicRoughness" : {"baseColorFactor" : [1, 1, 1, 1], "baseColorTexture" : {"index" : 0, "texCoord" : 0}, "metallicFactor" : 1, "roughnessFactor" : 1}, "emissiveFactor" : [0, 0, 0], "alphaMode" : "OPAQUE", "doubleSided" : false}], "meshes" : [{"primitives" : [{"attributes" : {"POSITION" : 1, "TEXCOORD_0" : 2, "NORMAL" : 3}, "indices" : 0, "material" : 0, "mode" : 4}], "name" : ""}], "nodes" : [{"mesh" : 0, "name" : "rock"}], "samplers" : [{"magFilter" : 9729, "minFilter" : 9729, "wrapS" : 10497, "wrapT" : 10497}], "scene" : 0, "scenes" : [{"nodes" : [0]}], "textures" : [{"sampler" : 0, "source" : 0, "name" : ""}]}