{
	"asset":{
		"generator":"Khronos glTF Blender I/O v4.0.44",
		"version":"2.0"
	},
	"scene":0,
	"scenes":[
		{
			"name":"Scene",
			"nodes":[
				0,
				2
			]
		}
	],
	"nodes":[
		{
			"name":"RootNode"
		},
		{
			"mesh":0,
			"name":"formationLarge_rock",
			"scale":[
				100,
				77,
				100
			],
			"translation":[
				40.45148849487305,
				0,
				-106.38558959960938
			]
		},
		{
			"children":[
				1
			],
			"name":"RootNode.001",
			"translation":[
				-32.89319610595703,
				0,
				98.50414276123047
			]
		}
	],
	"materials":[
		{
			"name":"wood.001",
			"pbrMetallicRoughness":{
				"baseColorFactor":[
					0.729411780834198,
					0.4627451002597809,
					0.27843138575553894,
					1
				],
				"metallicFactor":0.4000000059604645
			}
		},
		{
			"name":"sand.001",
			"pbrMetallicRoughness":{
				"baseColorFactor":[
					0.8470587730407715,
					0.7607843279838562,
					0.6078432202339172,
					1
				],
				"metallicFactor":0.4000000059604645
			}
		}
	],
	"meshes":[
		{
			"name":"formationLarge_rock",
			"primitives":[
				{
					"attributes":{
						"POSITION":0,
						"NORMAL":1,
						"TEXCOORD_0":2
					},
					"indices":3,
					"material":0
				},
				{
					"attributes":{
						"POSITION":4,
						"NORMAL":5,
						"TEXCOORD_0":6
					},
					"indices":7,
					"material":1
				}
			]
		}
	],
	"accessors":[
		{
			"bufferView":0,
			"componentType":5126,
			"count":188,
			"max":[
				0,
				0.17924199998378754,
				0.09467998892068863
			],
			"min":[
				-0.1362345963716507,
				0,
				0
			],
			"type":"VEC3"
		},
		{
			"bufferView":1,
			"componentType":5126,
			"count":188,
			"type":"VEC3"
		},
		{
			"bufferView":2,
			"componentType":5126,
			"count":188,
			"type":"VEC2"
		},
		{
			"bufferView":3,
			"componentType":5123,
			"count":330,
			"type":"SCALAR"
		},
		{
			"bufferView":4,
			"componentType":5126,
			"count":40,
			"max":[
				-0.007967433892190456,
				0.17924199998378754,
				0.0854799896478653
			],
			"min":[
				-0.12020830065011978,
				0.016519999131560326,
				0.011967940255999565
			],
			"type":"VEC3"
		},
		{
			"bufferView":5,
			"componentType":5126,
			"count":40,
			"type":"VEC3"
		},
		{
			"bufferView":6,
			"componentType":5126,
			"count":40,
			"type":"VEC2"
		},
		{
			"bufferView":7,
			"componentType":5123,
			"count":78,
			"type":"SCALAR"
		}
	],
	"bufferViews":[
		{
			"buffer":0,
			"byteLength":2256,
			"byteOffset":0,
			"target":34962
		},
		{
			"buffer":0,
			"byteLength":2256,
			"byteOffset":2256,
			"target":34962
		},
		{
			"buffer":0,
			"byteLength":1504,
			"byteOffset":4512,
			"target":34962
		},
		{
			"buffer":0,
			"byteLength":660,
			"byteOffset":6016,
			"target":34963
		},
		{
			"buffer":0,
			"byteLength":480,
			"byteOffset":6676,
			"target":34962
		},
		{
			"buffer":0,
			"byteLength":480,
			"byteOffset":7156,
			"target":34962
		},
		{
			"buffer":0,
			"byteLength":320,
			"byteOffset":7636,
			"target":34962
		},
		{
			"buffer":0,
			"byteLength":156,
			"byteOffset":7956,
			"target":34963
		}
	],
	"buffers":[
		{
			"byteLength":8112,
			"uri":"rockform.bin"
		}
	]
}
