{
	"asset":{
		"generator":"Khronos glTF Blender I/O v4.0.44",
		"version":"2.0"
	},
	"scene":0,
	"scenes":[
		{
			"name":"Scene",
			"nodes":[
				0
			]
		}
	],
	"nodes":[
		{
			"mesh":0,
			"name":"ChamferBox001"
		}
	],
	"materials":[
		{
			"name":"03___Default",
			"pbrMetallicRoughness":{
				"baseColorFactor":[
					0.38040000200271606,
					0.1647000014781952,
					0.023499999195337296,
					1
				],
				"metallicFactor":0,
				"roughnessFactor":0.9900000095367432
			}
		},
		{
			"name":"01___Default",
			"pbrMetallicRoughness":{
				"metallicFactor":0,
				"roughnessFactor":0.9900000095367432
			}
		},
		{
			"name":"02___Default",
			"pbrMetallicRoughness":{
				"baseColorFactor":[
					0.2549000084400177,
					0.48240000009536743,
					0.486299991607666,
					1
				],
				"metallicFactor":0,
				"roughnessFactor":0.9900000095367432
			}
		},
		{
			"name":"08___Default",
			"pbrMetallicRoughness":{
				"baseColorFactor":[
					0.9843000173568726,
					0.7020000219345093,
					0.4706000089645386,
					1
				],
				"metallicFactor":0,
				"roughnessFactor":0.9900000095367432
			}
		},
		{
			"name":"Material__25",
			"pbrMetallicRoughness":{
				"baseColorFactor":[
					0.5879999995231628,
					0.5879999995231628,
					0.5879999995231628,
					1
				],
				"metallicFactor":0,
				"roughnessFactor":0.9900000095367432
			}
		},
		{
			"name":"07___Default",
			"pbrMetallicRoughness":{
				"baseColorFactor":[
					0.027499999850988388,
					0.027499999850988388,
					0.027499999850988388,
					1
				],
				"metallicFactor":0,
				"roughnessFactor":0.9900000095367432
			}
		},
		{
			"name":"13___Default",
			"pbrMetallicRoughness":{
				"baseColorFactor":[
					0.011800000444054604,
					0.011800000444054604,
					0.011800000444054604,
					1
				],
				"metallicFactor":0,
				"roughnessFactor":0.9900000095367432
			}
		},
		{
			"name":"09___Default",
			"pbrMetallicRoughness":{
				"baseColorFactor":[
					0.28630000352859497,
					0.03920000046491623,
					0.03920000046491623,
					1
				],
				"metallicFactor":0,
				"roughnessFactor":0.9900000095367432
			}
		}
	],
	"meshes":[
		{
			"name":"ChamferBox001_1",
			"primitives":[
				{
					"attributes":{
						"POSITION":0,
						"NORMAL":1,
						"TEXCOORD_0":2
					},
					"indices":3,
					"material":0
				},
				{
					"attributes":{
						"POSITION":4,
						"NORMAL":5,
						"TEXCOORD_0":6
					},
					"indices":7,
					"material":1
				},
				{
					"attributes":{
						"POSITION":8,
						"NORMAL":9,
						"TEXCOORD_0":10
					},
					"indices":11,
					"material":2
				},
				{
					"attributes":{
						"POSITION":12,
						"NORMAL":13,
						"TEXCOORD_0":14
					},
					"indices":15,
					"material":3
				},
				{
					"attributes":{
						"POSITION":16,
						"NORMAL":17,
						"TEXCOORD_0":18
					},
					"indices":19,
					"material":4
				},
				{
					"attributes":{
						"POSITION":20,
						"NORMAL":21,
						"TEXCOORD_0":22
					},
					"indices":23,
					"material":5
				},
				{
					"attributes":{
						"POSITION":24,
						"NORMAL":25,
						"TEXCOORD_0":26
					},
					"indices":27,
					"material":6
				},
				{
					"attributes":{
						"POSITION":28,
						"NORMAL":29,
						"TEXCOORD_0":30
					},
					"indices":31,
					"material":7
				}
			]
		}
	],
	"accessors":[
		{
			"bufferView":0,
			"componentType":5126,
			"count":1087,
			"max":[
				38.70869827270508,
				37.98889923095703,
				26.480300903320312
			],
			"min":[
				-41.38010025024414,
				-0.921500027179718,
				-13.445500373840332
			],
			"type":"VEC3"
		},
		{
			"bufferView":1,
			"componentType":5126,
			"count":1087,
			"type":"VEC3"
		},
		{
			"bufferView":2,
			"componentType":5126,
			"count":1087,
			"type":"VEC2"
		},
		{
			"bufferView":3,
			"componentType":5123,
			"count":3132,
			"type":"SCALAR"
		},
		{
			"bufferView":4,
			"componentType":5126,
			"count":840,
			"max":[
				27.94890022277832,
				31.950000762939453,
				27.947599411010742
			],
			"min":[
				-41.38010025024414,
				2.7692999839782715,
				-14.80620002746582
			],
			"type":"VEC3"
		},
		{
			"bufferView":5,
			"componentType":5126,
			"count":840,
			"type":"VEC3"
		},
		{
			"bufferView":6,
			"componentType":5126,
			"count":840,
			"type":"VEC2"
		},
		{
			"bufferView":7,
			"componentType":5123,
			"count":2760,
			"type":"SCALAR"
		},
		{
			"bufferView":8,
			"componentType":5126,
			"count":24,
			"max":[
				23.338199615478516,
				30.94700050354004,
				24.378299713134766
			],
			"min":[
				-35.56890106201172,
				20.21769905090332,
				-11.400300025939941
			],
			"type":"VEC3"
		},
		{
			"bufferView":9,
			"componentType":5126,
			"count":24,
			"type":"VEC3"
		},
		{
			"bufferView":10,
			"componentType":5126,
			"count":24,
			"type":"VEC2"
		},
		{
			"bufferView":11,
			"componentType":5123,
			"count":36,
			"type":"SCALAR"
		},
		{
			"bufferView":12,
			"componentType":5126,
			"count":56,
			"max":[
				24.338199615478516,
				19.749500274658203,
				25.9060001373291
			],
			"min":[
				-39.85129928588867,
				12.122200012207031,
				-12.927900314331055
			],
			"type":"VEC3"
		},
		{
			"bufferView":13,
			"componentType":5126,
			"count":56,
			"type":"VEC3"
		},
		{
			"bufferView":14,
			"componentType":5126,
			"count":56,
			"type":"VEC2"
		},
		{
			"bufferView":15,
			"componentType":5123,
			"count":84,
			"type":"SCALAR"
		},
		{
			"bufferView":16,
			"componentType":5126,
			"count":20,
			"max":[
				-0.12839999794960022,
				31.950000762939453,
				25.9060001373291
			],
			"min":[
				-37.33369827270508,
				19.749500274658203,
				-9.31719970703125
			],
			"type":"VEC3"
		},
		{
			"bufferView":17,
			"componentType":5126,
			"count":20,
			"type":"VEC3"
		},
		{
			"bufferView":18,
			"componentType":5126,
			"count":20,
			"type":"VEC2"
		},
		{
			"bufferView":19,
			"componentType":5123,
			"count":36,
			"type":"SCALAR"
		},
		{
			"bufferView":20,
			"componentType":5126,
			"count":1294,
			"max":[
				23.338199615478516,
				36.19499969482422,
				26.66550064086914
			],
			"min":[
				-40.83039855957031,
				7.736599922180176,
				-13.077300071716309
			],
			"type":"VEC3"
		},
		{
			"bufferView":21,
			"componentType":5126,
			"count":1294,
			"type":"VEC3"
		},
		{
			"bufferView":22,
			"componentType":5126,
			"count":1294,
			"type":"VEC2"
		},
		{
			"bufferView":23,
			"componentType":5123,
			"count":2796,
			"type":"SCALAR"
		},
		{
			"bufferView":24,
			"componentType":5126,
			"count":356,
			"max":[
				-1.0959999561309814,
				7.839600086212158,
				27.035600662231445
			],
			"min":[
				-9.187000274658203,
				-0.12849999964237213,
				-13.921299934387207
			],
			"type":"VEC3"
		},
		{
			"bufferView":25,
			"componentType":5126,
			"count":356,
			"type":"VEC3"
		},
		{
			"bufferView":26,
			"componentType":5126,
			"count":356,
			"type":"VEC2"
		},
		{
			"bufferView":27,
			"componentType":5123,
			"count":1392,
			"type":"SCALAR"
		},
		{
			"bufferView":28,
			"componentType":5126,
			"count":724,
			"max":[
				11.836400032043457,
				8.991000175476074,
				26.249900817871094
			],
			"min":[
				-23.1835994720459,
				7.882999897003174,
				-13.318699836730957
			],
			"type":"VEC3"
		},
		{
			"bufferView":29,
			"componentType":5126,
			"count":724,
			"type":"VEC3"
		},
		{
			"bufferView":30,
			"componentType":5126,
			"count":724,
			"type":"VEC2"
		},
		{
			"bufferView":31,
			"componentType":5123,
			"count":3840,
			"type":"SCALAR"
		}
	],
	"bufferViews":[
		{
			"buffer":0,
			"byteLength":13044,
			"byteOffset":0,
			"target":34962
		},
		{
			"buffer":0,
			"byteLength":13044,
			"byteOffset":13044,
			"target":34962
		},
		{
			"buffer":0,
			"byteLength":8696,
			"byteOffset":26088,
			"target":34962
		},
		{
			"buffer":0,
			"byteLength":6264,
			"byteOffset":34784,
			"target":34963
		},
		{
			"buffer":0,
			"byteLength":10080,
			"byteOffset":41048,
			"target":34962
		},
		{
			"buffer":0,
			"byteLength":10080,
			"byteOffset":51128,
			"target":34962
		},
		{
			"buffer":0,
			"byteLength":6720,
			"byteOffset":61208,
			"target":34962
		},
		{
			"buffer":0,
			"byteLength":5520,
			"byteOffset":67928,
			"target":34963
		},
		{
			"buffer":0,
			"byteLength":288,
			"byteOffset":73448,
			"target":34962
		},
		{
			"buffer":0,
			"byteLength":288,
			"byteOffset":73736,
			"target":34962
		},
		{
			"buffer":0,
			"byteLength":192,
			"byteOffset":74024,
			"target":34962
		},
		{
			"buffer":0,
			"byteLength":72,
			"byteOffset":74216,
			"target":34963
		},
		{
			"buffer":0,
			"byteLength":672,
			"byteOffset":74288,
			"target":34962
		},
		{
			"buffer":0,
			"byteLength":672,
			"byteOffset":74960,
			"target":34962
		},
		{
			"buffer":0,
			"byteLength":448,
			"byteOffset":75632,
			"target":34962
		},
		{
			"buffer":0,
			"byteLength":168,
			"byteOffset":76080,
			"target":34963
		},
		{
			"buffer":0,
			"byteLength":240,
			"byteOffset":76248,
			"target":34962
		},
		{
			"buffer":0,
			"byteLength":240,
			"byteOffset":76488,
			"target":34962
		},
		{
			"buffer":0,
			"byteLength":160,
			"byteOffset":76728,
			"target":34962
		},
		{
			"buffer":0,
			"byteLength":72,
			"byteOffset":76888,
			"target":34963
		},
		{
			"buffer":0,
			"byteLength":15528,
			"byteOffset":76960,
			"target":34962
		},
		{
			"buffer":0,
			"byteLength":15528,
			"byteOffset":92488,
			"target":34962
		},
		{
			"buffer":0,
			"byteLength":10352,
			"byteOffset":108016,
			"target":34962
		},
		{
			"buffer":0,
			"byteLength":5592,
			"byteOffset":118368,
			"target":34963
		},
		{
			"buffer":0,
			"byteLength":4272,
			"byteOffset":123960,
			"target":34962
		},
		{
			"buffer":0,
			"byteLength":4272,
			"byteOffset":128232,
			"target":34962
		},
		{
			"buffer":0,
			"byteLength":2848,
			"byteOffset":132504,
			"target":34962
		},
		{
			"buffer":0,
			"byteLength":2784,
			"byteOffset":135352,
			"target":34963
		},
		{
			"buffer":0,
			"byteLength":8688,
			"byteOffset":138136,
			"target":34962
		},
		{
			"buffer":0,
			"byteLength":8688,
			"byteOffset":146824,
			"target":34962
		},
		{
			"buffer":0,
			"byteLength":5792,
			"byteOffset":155512,
			"target":34962
		},
		{
			"buffer":0,
			"byteLength":7680,
			"byteOffset":161304,
			"target":34963
		}
	],
	"buffers":[
		{
			"byteLength":168984,
			"uri":"caravan.bin"
		}
	]
}
