{
	"asset":{
		"generator":"Khronos glTF Blender I/O v4.0.44",
		"version":"2.0"
	},
	"extensionsUsed":[
		"KHR_materials_emissive_strength"
	],
	"scene":0,
	"scenes":[
		{
			"name":"Scene",
			"nodes":[
				0
			]
		}
	],
	"nodes":[
		{
			"mesh":0,
			"name":"stage.002",
			"rotation":[
				0.7071068286895752,
				0,
				0,
				0.7071068286895752
			]
		}
	],
	"materials":[
		{
			"doubleSided":true,
			"emissiveFactor":[
				1,
				1,
				1
			],
			"extensions":{
				"KHR_materials_emissive_strength":{
					"emissiveStrength":5.399999618530273
				}
			},
			"name":"Glow.001",
			"pbrMetallicRoughness":{
				"baseColorFactor":[
					0.800000011920929,
					0.800000011920929,
					0.800000011920929,
					1
				],
				"metallicFactor":0,
				"roughnessFactor":0.5
			}
		},
		{
			"doubleSided":true,
			"name":"Black",
			"pbrMetallicRoughness":{
				"baseColorFactor":[
					0.0071936543099582195,
					0.0071936543099582195,
					0.0071936543099582195,
					1
				],
				"metallicFactor":0,
				"roughnessFactor":0.5
			}
		},
		{
			"doubleSided":true,
			"name":"BlackStruss.001",
			"pbrMetallicRoughness":{
				"baseColorFactor":[
					0.044454991817474365,
					0.044454991817474365,
					0.044454991817474365,
					1
				],
				"metallicFactor":0,
				"roughnessFactor":0.5
			}
		},
		{
			"doubleSided":true,
			"name":"MetalStruss.001",
			"pbrMetallicRoughness":{
				"baseColorFactor":[
					0.44797974824905396,
					0.44797974824905396,
					0.44797974824905396,
					1
				],
				"metallicFactor":0,
				"roughnessFactor":0.5
			}
		}
	],
	"meshes":[
		{
			"name":"stage.002",
			"primitives":[
				{
					"attributes":{
						"POSITION":0,
						"NORMAL":1,
						"TEXCOORD_0":2
					},
					"indices":3,
					"material":0
				},
				{
					"attributes":{
						"POSITION":4,
						"NORMAL":5,
						"TEXCOORD_0":6
					},
					"indices":7,
					"material":1
				},
				{
					"attributes":{
						"POSITION":8,
						"NORMAL":9,
						"TEXCOORD_0":10
					},
					"indices":11,
					"material":2
				},
				{
					"attributes":{
						"POSITION":12,
						"NORMAL":13,
						"TEXCOORD_0":14
					},
					"indices":15,
					"material":3
				}
			]
		}
	],
	"accessors":[
		{
			"bufferView":0,
			"componentType":5126,
			"count":220,
			"max":[
				13.860879898071289,
				24.741140365600586,
				-1.6164826154708862
			],
			"min":[
				-13.860880851745605,
				-8.274103164672852,
				-3.409899950027466
			],
			"type":"VEC3"
		},
		{
			"bufferView":1,
			"componentType":5126,
			"count":220,
			"type":"VEC3"
		},
		{
			"bufferView":2,
			"componentType":5126,
			"count":220,
			"type":"VEC2"
		},
		{
			"bufferView":3,
			"componentType":5123,
			"count":414,
			"type":"SCALAR"
		},
		{
			"bufferView":4,
			"componentType":5126,
			"count":714,
			"max":[
				13.865615844726562,
				24.741140365600586,
				3.715467471465672e-07
			],
			"min":[
				-13.860880851745605,
				-8.499999046325684,
				-3.4146158695220947
			],
			"type":"VEC3"
		},
		{
			"bufferView":5,
			"componentType":5126,
			"count":714,
			"type":"VEC3"
		},
		{
			"bufferView":6,
			"componentType":5126,
			"count":714,
			"type":"VEC2"
		},
		{
			"bufferView":7,
			"componentType":5123,
			"count":1458,
			"type":"SCALAR"
		},
		{
			"bufferView":8,
			"componentType":5126,
			"count":2544,
			"max":[
				29.241174697875977,
				10.577531814575195,
				0.006903836969286203
			],
			"min":[
				-29.067590713500977,
				-10.331599235534668,
				-15.264269828796387
			],
			"type":"VEC3"
		},
		{
			"bufferView":9,
			"componentType":5126,
			"count":2544,
			"type":"VEC3"
		},
		{
			"bufferView":10,
			"componentType":5126,
			"count":2544,
			"type":"VEC2"
		},
		{
			"bufferView":11,
			"componentType":5123,
			"count":5544,
			"type":"SCALAR"
		},
		{
			"bufferView":12,
			"componentType":5126,
			"count":18288,
			"max":[
				28.49149513244629,
				9.863235473632812,
				-0.10333937406539917
			],
			"min":[
				-28.31720733642578,
				-9.586479187011719,
				-15.243358612060547
			],
			"type":"VEC3"
		},
		{
			"bufferView":13,
			"componentType":5126,
			"count":18288,
			"type":"VEC3"
		},
		{
			"bufferView":14,
			"componentType":5126,
			"count":18288,
			"type":"VEC2"
		},
		{
			"bufferView":15,
			"componentType":5123,
			"count":54864,
			"type":"SCALAR"
		}
	],
	"bufferViews":[
		{
			"buffer":0,
			"byteLength":2640,
			"byteOffset":0,
			"target":34962
		},
		{
			"buffer":0,
			"byteLength":2640,
			"byteOffset":2640,
			"target":34962
		},
		{
			"buffer":0,
			"byteLength":1760,
			"byteOffset":5280,
			"target":34962
		},
		{
			"buffer":0,
			"byteLength":828,
			"byteOffset":7040,
			"target":34963
		},
		{
			"buffer":0,
			"byteLength":8568,
			"byteOffset":7868,
			"target":34962
		},
		{
			"buffer":0,
			"byteLength":8568,
			"byteOffset":16436,
			"target":34962
		},
		{
			"buffer":0,
			"byteLength":5712,
			"byteOffset":25004,
			"target":34962
		},
		{
			"buffer":0,
			"byteLength":2916,
			"byteOffset":30716,
			"target":34963
		},
		{
			"buffer":0,
			"byteLength":30528,
			"byteOffset":33632,
			"target":34962
		},
		{
			"buffer":0,
			"byteLength":30528,
			"byteOffset":64160,
			"target":34962
		},
		{
			"buffer":0,
			"byteLength":20352,
			"byteOffset":94688,
			"target":34962
		},
		{
			"buffer":0,
			"byteLength":11088,
			"byteOffset":115040,
			"target":34963
		},
		{
			"buffer":0,
			"byteLength":219456,
			"byteOffset":126128,
			"target":34962
		},
		{
			"buffer":0,
			"byteLength":219456,
			"byteOffset":345584,
			"target":34962
		},
		{
			"buffer":0,
			"byteLength":146304,
			"byteOffset":565040,
			"target":34962
		},
		{
			"buffer":0,
			"byteLength":109728,
			"byteOffset":711344,
			"target":34963
		}
	],
	"buffers":[
		{
			"byteLength":821072,
			"uri":"stage02.bin"
		}
	]
}
