{
	"asset":{
		"generator":"Khronos glTF Blender I/O v4.0.44",
		"version":"2.0"
	},
	"scene":0,
	"scenes":[
		{
			"name":"Scene",
			"nodes":[
				0
			]
		}
	],
	"nodes":[
		{
			"mesh":0,
			"name":"Tent_Cube.001"
		}
	],
	"materials":[
		{
			"name":"Tent_M",
			"pbrMetallicRoughness":{
				"baseColorFactor":[
					0.800000011920929,
					0.31093499064445496,
					0.08196000009775162,
					1
				],
				"metallicFactor":0,
				"roughnessFactor":0.9909999966621399
			}
		},
		{
			"name":"Tent_S",
			"pbrMetallicRoughness":{
				"baseColorFactor":[
					0.4969240128993988,
					0.15123000741004944,
					0.05622800067067146,
					1
				],
				"metallicFactor":0,
				"roughnessFactor":0.9909999966621399
			}
		}
	],
	"meshes":[
		{
			"name":"Tent_Cube.001-Mesh",
			"primitives":[
				{
					"attributes":{
						"POSITION":0,
						"NORMAL":1,
						"TEXCOORD_0":2
					},
					"indices":3,
					"material":0
				},
				{
					"attributes":{
						"POSITION":4,
						"NORMAL":5,
						"TEXCOORD_0":6
					},
					"indices":7,
					"material":1
				}
			]
		}
	],
	"accessors":[
		{
			"bufferView":0,
			"componentType":5126,
			"count":114,
			"max":[
				0.800000011920929,
				0.5385950207710266,
				0.8939170241355896
			],
			"min":[
				-0.800000011920929,
				-0.6783329844474792,
				-0.800000011920929
			],
			"type":"VEC3"
		},
		{
			"bufferView":1,
			"componentType":5126,
			"count":114,
			"type":"VEC3"
		},
		{
			"bufferView":2,
			"componentType":5126,
			"count":114,
			"type":"VEC2"
		},
		{
			"bufferView":3,
			"componentType":5123,
			"count":180,
			"type":"SCALAR"
		},
		{
			"bufferView":4,
			"componentType":5126,
			"count":276,
			"max":[
				1.090237021446228,
				0.5457109808921814,
				0.8879029750823975
			],
			"min":[
				-1.1223069429397583,
				-0.7446309924125671,
				-0.8879029750823975
			],
			"type":"VEC3"
		},
		{
			"bufferView":5,
			"componentType":5126,
			"count":276,
			"type":"VEC3"
		},
		{
			"bufferView":6,
			"componentType":5126,
			"count":276,
			"type":"VEC2"
		},
		{
			"bufferView":7,
			"componentType":5123,
			"count":390,
			"type":"SCALAR"
		}
	],
	"bufferViews":[
		{
			"buffer":0,
			"byteLength":1368,
			"byteOffset":0,
			"target":34962
		},
		{
			"buffer":0,
			"byteLength":1368,
			"byteOffset":1368,
			"target":34962
		},
		{
			"buffer":0,
			"byteLength":912,
			"byteOffset":2736,
			"target":34962
		},
		{
			"buffer":0,
			"byteLength":360,
			"byteOffset":3648,
			"target":34963
		},
		{
			"buffer":0,
			"byteLength":3312,
			"byteOffset":4008,
			"target":34962
		},
		{
			"buffer":0,
			"byteLength":3312,
			"byteOffset":7320,
			"target":34962
		},
		{
			"buffer":0,
			"byteLength":2208,
			"byteOffset":10632,
			"target":34962
		},
		{
			"buffer":0,
			"byteLength":780,
			"byteOffset":12840,
			"target":34963
		}
	],
	"buffers":[
		{
			"byteLength":13620,
			"uri":"orangetent.bin"
		}
	]
}
