{
	"asset":{
		"generator":"Khronos glTF Blender I/O v4.0.44",
		"version":"2.0"
	},
	"extensionsUsed":[
		"KHR_materials_specular",
		"KHR_materials_ior"
	],
	"scene":0,
	"scenes":[
		{
			"name":"Scene",
			"nodes":[
				0
			]
		}
	],
	"nodes":[
		{
			"mesh":0,
			"name":"rock",
			"rotation":[
				0.7071068286895752,
				0,
				0,
				0.7071068286895752
			]
		}
	],
	"materials":[
		{
			"doubleSided":true,
			"extensions":{
				"KHR_materials_specular":{
					"specularColorFactor":[
						1.600000023841858,
						1.600000023841858,
						1.600000023841858
					]
				},
				"KHR_materials_ior":{
					"ior":1.4500000476837158
				}
			},
			"name":"None.001",
			"pbrMetallicRoughness":{
				"baseColorTexture":{
					"index":0
				},
				"metallicFactor":0
			}
		}
	],
	"meshes":[
		{
			"name":"rock",
			"primitives":[
				{
					"attributes":{
						"POSITION":0,
						"NORMAL":1,
						"TEXCOORD_0":2
					},
					"indices":3,
					"material":0
				}
			]
		}
	],
	"textures":[
		{
			"sampler":0,
			"source":0
		}
	],
	"images":[
		{
			"mimeType":"image/png",
			"name":"PUSHILIN_rock",
			"uri":"PUSHILIN_rock.png"
		}
	],
	"accessors":[
		{
			"bufferView":0,
			"componentType":5126,
			"count":1353,
			"max":[
				0.7391759753227234,
				0.7320460081100464,
				0.5865470170974731
			],
			"min":[
				-0.6621609926223755,
				-0.7483829855918884,
				-0.982446014881134
			],
			"type":"VEC3"
		},
		{
			"bufferView":1,
			"componentType":5126,
			"count":1353,
			"type":"VEC3"
		},
		{
			"bufferView":2,
			"componentType":5126,
			"count":1353,
			"type":"VEC2"
		},
		{
			"bufferView":3,
			"componentType":5123,
			"count":1443,
			"type":"SCALAR"
		}
	],
	"bufferViews":[
		{
			"buffer":0,
			"byteLength":16236,
			"byteOffset":0,
			"target":34962
		},
		{
			"buffer":0,
			"byteLength":16236,
			"byteOffset":16236,
			"target":34962
		},
		{
			"buffer":0,
			"byteLength":10824,
			"byteOffset":32472,
			"target":34962
		},
		{
			"buffer":0,
			"byteLength":2886,
			"byteOffset":43296,
			"target":34963
		}
	],
	"samplers":[
		{
			"magFilter":9729,
			"minFilter":9987
		}
	],
	"buffers":[
		{
			"byteLength":46184,
			"uri":"PUSHILIN_rock.bin"
		}
	]
}
