{
	"asset":{
		"generator":"Khronos glTF Blender I/O v4.0.44",
		"version":"2.0"
	},
	"extensionsUsed":[
		"KHR_materials_transmission",
		"KHR_materials_specular",
		"KHR_materials_ior"
	],
	"scene":0,
	"scenes":[
		{
			"name":"Scene",
			"nodes":[
				0
			]
		}
	],
	"nodes":[
		{
			"mesh":0,
			"name":"SM_FerrisWheel_02",
			"rotation":[
				0.7071068286895752,
				0,
				0,
				0.7071068286895752
			]
		}
	],
	"materials":[
		{
			"alphaMode":"BLEND",
			"doubleSided":true,
			"extensions":{
				"KHR_materials_transmission":{
					"transmissionFactor":1
				},
				"KHR_materials_specular":{
					"specularFactor":0
				},
				"KHR_materials_ior":{
					"ior":1
				}
			},
			"name":"lambert4SG",
			"pbrMetallicRoughness":{
				"baseColorFactor":[
					0.09000000357627869,
					0.09000000357627869,
					0.09000000357627869,
					1
				],
				"metallicFactor":0
			}
		},
		{
			"alphaMode":"BLEND",
			"doubleSided":true,
			"extensions":{
				"KHR_materials_transmission":{
					"transmissionFactor":1
				},
				"KHR_materials_specular":{
					"specularFactor":0
				},
				"KHR_materials_ior":{
					"ior":1
				}
			},
			"name":"lambert5SG",
			"pbrMetallicRoughness":{
				"baseColorFactor":[
					0.8100000023841858,
					0.8100000023841858,
					0.800000011920929,
					1
				],
				"metallicFactor":0
			}
		},
		{
			"alphaMode":"BLEND",
			"doubleSided":true,
			"extensions":{
				"KHR_materials_transmission":{
					"transmissionFactor":1
				},
				"KHR_materials_specular":{
					"specularFactor":0
				},
				"KHR_materials_ior":{
					"ior":1
				}
			},
			"name":"lambert6SG",
			"pbrMetallicRoughness":{
				"baseColorFactor":[
					0.3700000047683716,
					0,
					0.05999999865889549,
					1
				],
				"metallicFactor":0
			}
		},
		{
			"alphaMode":"BLEND",
			"doubleSided":true,
			"extensions":{
				"KHR_materials_transmission":{
					"transmissionFactor":1
				},
				"KHR_materials_specular":{
					"specularFactor":0
				},
				"KHR_materials_ior":{
					"ior":1
				}
			},
			"name":"lambert3SG",
			"pbrMetallicRoughness":{
				"baseColorFactor":[
					0.3799999952316284,
					0.3799999952316284,
					0.3799999952316284,
					1
				],
				"metallicFactor":0
			}
		},
		{
			"alphaMode":"BLEND",
			"doubleSided":true,
			"extensions":{
				"KHR_materials_transmission":{
					"transmissionFactor":1
				},
				"KHR_materials_specular":{
					"specularFactor":0
				},
				"KHR_materials_ior":{
					"ior":1
				}
			},
			"name":"lambert2SG",
			"pbrMetallicRoughness":{
				"baseColorFactor":[
					0.019999999552965164,
					0.07000000029802322,
					0.2199999988079071,
					1
				],
				"metallicFactor":0
			}
		}
	],
	"meshes":[
		{
			"name":"SM_FerrisWheel_02",
			"primitives":[
				{
					"attributes":{
						"POSITION":0,
						"NORMAL":1,
						"TEXCOORD_0":2
					},
					"indices":3,
					"material":0
				},
				{
					"attributes":{
						"POSITION":4,
						"NORMAL":5,
						"TEXCOORD_0":6
					},
					"indices":7,
					"material":1
				},
				{
					"attributes":{
						"POSITION":8,
						"NORMAL":9,
						"TEXCOORD_0":10
					},
					"indices":11,
					"material":2
				},
				{
					"attributes":{
						"POSITION":12,
						"NORMAL":13,
						"TEXCOORD_0":14
					},
					"indices":15,
					"material":3
				},
				{
					"attributes":{
						"POSITION":16,
						"NORMAL":17,
						"TEXCOORD_0":18
					},
					"indices":19,
					"material":4
				}
			]
		}
	],
	"accessors":[
		{
			"bufferView":0,
			"componentType":5126,
			"count":891,
			"max":[
				7.2179951667785645,
				24.785667419433594,
				0.19544799625873566
			],
			"min":[
				-7.750213146209717,
				-24.965377807617188,
				-50.618961334228516
			],
			"type":"VEC3"
		},
		{
			"bufferView":1,
			"componentType":5126,
			"count":891,
			"type":"VEC3"
		},
		{
			"bufferView":2,
			"componentType":5126,
			"count":891,
			"type":"VEC2"
		},
		{
			"bufferView":3,
			"componentType":5123,
			"count":1788,
			"type":"SCALAR"
		},
		{
			"bufferView":4,
			"componentType":5126,
			"count":7670,
			"max":[
				2.4202890396118164,
				23.492393493652344,
				-3.928947925567627
			],
			"min":[
				-2.4202880859375,
				-23.229049682617188,
				-50.20988082885742
			],
			"type":"VEC3"
		},
		{
			"bufferView":5,
			"componentType":5126,
			"count":7670,
			"type":"VEC3"
		},
		{
			"bufferView":6,
			"componentType":5126,
			"count":7670,
			"type":"VEC2"
		},
		{
			"bufferView":7,
			"componentType":5123,
			"count":16512,
			"type":"SCALAR"
		},
		{
			"bufferView":8,
			"componentType":5126,
			"count":2423,
			"max":[
				2.4202890396118164,
				23.492393493652344,
				-2.1905078887939453
			],
			"min":[
				-2.4202880859375,
				-23.229049682617188,
				-45.87164306640625
			],
			"type":"VEC3"
		},
		{
			"bufferView":9,
			"componentType":5126,
			"count":2423,
			"type":"VEC3"
		},
		{
			"bufferView":10,
			"componentType":5126,
			"count":2423,
			"type":"VEC2"
		},
		{
			"bufferView":11,
			"componentType":5123,
			"count":6912,
			"type":"SCALAR"
		},
		{
			"bufferView":12,
			"componentType":5126,
			"count":410,
			"max":[
				4.330650806427002,
				21.48307991027832,
				-8.138910293579102
			],
			"min":[
				-4.543144226074219,
				-21.106794357299805,
				-50.72880554199219
			],
			"type":"VEC3"
		},
		{
			"bufferView":13,
			"componentType":5126,
			"count":410,
			"type":"VEC3"
		},
		{
			"bufferView":14,
			"componentType":5126,
			"count":410,
			"type":"VEC2"
		},
		{
			"bufferView":15,
			"componentType":5123,
			"count":768,
			"type":"SCALAR"
		},
		{
			"bufferView":16,
			"componentType":5126,
			"count":712,
			"max":[
				6.831512928009033,
				24.553659439086914,
				-1.4472730159759521
			],
			"min":[
				-6.8004150390625,
				-24.56587028503418,
				-28.585683822631836
			],
			"type":"VEC3"
		},
		{
			"bufferView":17,
			"componentType":5126,
			"count":712,
			"type":"VEC3"
		},
		{
			"bufferView":18,
			"componentType":5126,
			"count":712,
			"type":"VEC2"
		},
		{
			"bufferView":19,
			"componentType":5123,
			"count":1440,
			"type":"SCALAR"
		}
	],
	"bufferViews":[
		{
			"buffer":0,
			"byteLength":10692,
			"byteOffset":0,
			"target":34962
		},
		{
			"buffer":0,
			"byteLength":10692,
			"byteOffset":10692,
			"target":34962
		},
		{
			"buffer":0,
			"byteLength":7128,
			"byteOffset":21384,
			"target":34962
		},
		{
			"buffer":0,
			"byteLength":3576,
			"byteOffset":28512,
			"target":34963
		},
		{
			"buffer":0,
			"byteLength":92040,
			"byteOffset":32088,
			"target":34962
		},
		{
			"buffer":0,
			"byteLength":92040,
			"byteOffset":124128,
			"target":34962
		},
		{
			"buffer":0,
			"byteLength":61360,
			"byteOffset":216168,
			"target":34962
		},
		{
			"buffer":0,
			"byteLength":33024,
			"byteOffset":277528,
			"target":34963
		},
		{
			"buffer":0,
			"byteLength":29076,
			"byteOffset":310552,
			"target":34962
		},
		{
			"buffer":0,
			"byteLength":29076,
			"byteOffset":339628,
			"target":34962
		},
		{
			"buffer":0,
			"byteLength":19384,
			"byteOffset":368704,
			"target":34962
		},
		{
			"buffer":0,
			"byteLength":13824,
			"byteOffset":388088,
			"target":34963
		},
		{
			"buffer":0,
			"byteLength":4920,
			"byteOffset":401912,
			"target":34962
		},
		{
			"buffer":0,
			"byteLength":4920,
			"byteOffset":406832,
			"target":34962
		},
		{
			"buffer":0,
			"byteLength":3280,
			"byteOffset":411752,
			"target":34962
		},
		{
			"buffer":0,
			"byteLength":1536,
			"byteOffset":415032,
			"target":34963
		},
		{
			"buffer":0,
			"byteLength":8544,
			"byteOffset":416568,
			"target":34962
		},
		{
			"buffer":0,
			"byteLength":8544,
			"byteOffset":425112,
			"target":34962
		},
		{
			"buffer":0,
			"byteLength":5696,
			"byteOffset":433656,
			"target":34962
		},
		{
			"buffer":0,
			"byteLength":2880,
			"byteOffset":439352,
			"target":34963
		}
	],
	"buffers":[
		{
			"byteLength":442232,
			"uri":"01ferriswheel.bin"
		}
	]
}
