{
	"asset":{
		"generator":"Khronos glTF Blender I/O v4.0.44",
		"version":"2.0"
	},
	"scene":0,
	"scenes":[
		{
			"name":"Scene",
			"nodes":[
				1
			]
		}
	],
	"nodes":[
		{
			"mesh":0,
			"name":"formation_rock",
			"scale":[
				100,
				100,
				100
			],
			"translation":[
				11.448371887207031,
				0.8845862746238708,
				-4.756988525390625
			]
		},
		{
			"children":[
				0
			],
			"name":"RootNode"
		}
	],
	"materials":[
		{
			"name":"wood",
			"pbrMetallicRoughness":{
				"baseColorFactor":[
					0.729411780834198,
					0.4627451002597809,
					0.27843138575553894,
					1
				],
				"metallicFactor":0.4000000059604645
			}
		},
		{
			"name":"sand",
			"pbrMetallicRoughness":{
				"baseColorFactor":[
					0.8470587730407715,
					0.7607843279838562,
					0.6078432202339172,
					1
				],
				"metallicFactor":0.4000000059604645
			}
		}
	],
	"meshes":[
		{
			"name":"formation_rock",
			"primitives":[
				{
					"attributes":{
						"POSITION":0,
						"NORMAL":1,
						"TEXCOORD_0":2
					},
					"indices":3,
					"material":0
				},
				{
					"attributes":{
						"POSITION":4,
						"NORMAL":5,
						"TEXCOORD_0":6
					},
					"indices":7,
					"material":1
				}
			]
		}
	],
	"accessors":[
		{
			"bufferView":0,
			"componentType":5126,
			"count":200,
			"max":[
				0,
				0.12247499823570251,
				0.10671249777078629
			],
			"min":[
				-0.10598509758710861,
				0,
				0
			],
			"type":"VEC3"
		},
		{
			"bufferView":1,
			"componentType":5126,
			"count":200,
			"type":"VEC3"
		},
		{
			"bufferView":2,
			"componentType":5126,
			"count":200,
			"type":"VEC2"
		},
		{
			"bufferView":3,
			"componentType":5123,
			"count":366,
			"type":"SCALAR"
		},
		{
			"bufferView":4,
			"componentType":5126,
			"count":64,
			"max":[
				-0.013235969468951225,
				0.12247499823570251,
				0.09169074892997742
			],
			"min":[
				-0.10108509659767151,
				0.024000000208616257,
				0.00664926553145051
			],
			"type":"VEC3"
		},
		{
			"bufferView":5,
			"componentType":5126,
			"count":64,
			"type":"VEC3"
		},
		{
			"bufferView":6,
			"componentType":5126,
			"count":64,
			"type":"VEC2"
		},
		{
			"bufferView":7,
			"componentType":5123,
			"count":150,
			"type":"SCALAR"
		}
	],
	"bufferViews":[
		{
			"buffer":0,
			"byteLength":2400,
			"byteOffset":0,
			"target":34962
		},
		{
			"buffer":0,
			"byteLength":2400,
			"byteOffset":2400,
			"target":34962
		},
		{
			"buffer":0,
			"byteLength":1600,
			"byteOffset":4800,
			"target":34962
		},
		{
			"buffer":0,
			"byteLength":732,
			"byteOffset":6400,
			"target":34963
		},
		{
			"buffer":0,
			"byteLength":768,
			"byteOffset":7132,
			"target":34962
		},
		{
			"buffer":0,
			"byteLength":768,
			"byteOffset":7900,
			"target":34962
		},
		{
			"buffer":0,
			"byteLength":512,
			"byteOffset":8668,
			"target":34962
		},
		{
			"buffer":0,
			"byteLength":300,
			"byteOffset":9180,
			"target":34963
		}
	],
	"buffers":[
		{
			"byteLength":9480,
			"uri":"rockform.bin"
		}
	]
}
