{
	"asset":{
		"generator":"Khronos glTF Blender I/O v4.0.44",
		"version":"2.0"
	},
	"scene":0,
	"scenes":[
		{
			"name":"Scene",
			"nodes":[
				0
			]
		}
	],
	"nodes":[
		{
			"mesh":0,
			"name":"Ferris_Wheel_01",
			"rotation":[
				0.7071068286895752,
				0,
				0,
				0.7071068286895752
			]
		}
	],
	"materials":[
		{
			"alphaMode":"BLEND",
			"doubleSided":true,
			"name":"FFFFFF.001",
			"pbrMetallicRoughness":{
				"baseColorFactor":[
					1,
					1,
					1,
					0
				],
				"roughnessFactor":0.6900347471237183
			}
		},
		{
			"alphaMode":"BLEND",
			"doubleSided":true,
			"name":"455A64.001",
			"pbrMetallicRoughness":{
				"baseColorFactor":[
					0.2705880105495453,
					0.35294100642204285,
					0.3921569883823395,
					0
				],
				"roughnessFactor":0.6900347471237183
			}
		},
		{
			"alphaMode":"BLEND",
			"doubleSided":true,
			"name":"F44336.001",
			"pbrMetallicRoughness":{
				"baseColorFactor":[
					0.9568629860877991,
					0.2627449929714203,
					0.21176500618457794,
					0
				],
				"roughnessFactor":0.6900347471237183
			}
		},
		{
			"alphaMode":"BLEND",
			"doubleSided":true,
			"name":"039BE5.001",
			"pbrMetallicRoughness":{
				"baseColorFactor":[
					0.01176500041037798,
					0.6078429818153381,
					0.8980389833450317,
					0
				],
				"roughnessFactor":0.6900347471237183
			}
		}
	],
	"meshes":[
		{
			"name":"Ferris_Wheel_01.001",
			"primitives":[
				{
					"attributes":{
						"POSITION":0,
						"NORMAL":1
					},
					"indices":2,
					"material":0
				},
				{
					"attributes":{
						"POSITION":3,
						"NORMAL":4
					},
					"indices":5,
					"material":1
				},
				{
					"attributes":{
						"POSITION":6,
						"NORMAL":7
					},
					"indices":8,
					"material":2
				},
				{
					"attributes":{
						"POSITION":9,
						"NORMAL":10
					},
					"indices":11,
					"material":3
				}
			]
		}
	],
	"accessors":[
		{
			"bufferView":0,
			"componentType":5126,
			"count":832,
			"max":[
				4.669188976287842,
				1.430116057395935,
				-0.6178759932518005
			],
			"min":[
				-4.669188976287842,
				-1.430116057395935,
				-12.570928573608398
			],
			"type":"VEC3"
		},
		{
			"bufferView":1,
			"componentType":5126,
			"count":832,
			"type":"VEC3"
		},
		{
			"bufferView":2,
			"componentType":5123,
			"count":1464,
			"type":"SCALAR"
		},
		{
			"bufferView":3,
			"componentType":5126,
			"count":724,
			"max":[
				5.383391857147217,
				1.4926940202713013,
				0.01145199965685606
			],
			"min":[
				-5.263431072235107,
				-1.4926940202713013,
				-12.565106391906738
			],
			"type":"VEC3"
		},
		{
			"bufferView":4,
			"componentType":5126,
			"count":724,
			"type":"VEC3"
		},
		{
			"bufferView":5,
			"componentType":5123,
			"count":1272,
			"type":"SCALAR"
		},
		{
			"bufferView":6,
			"componentType":5126,
			"count":672,
			"max":[
				4.8996710777282715,
				0.8754469752311707,
				-3.0020689964294434
			],
			"min":[
				-4.8996710777282715,
				-0.8754469752311707,
				-12.801409721374512
			],
			"type":"VEC3"
		},
		{
			"bufferView":7,
			"componentType":5126,
			"count":672,
			"type":"VEC3"
		},
		{
			"bufferView":8,
			"componentType":5123,
			"count":1248,
			"type":"SCALAR"
		},
		{
			"bufferView":9,
			"componentType":5126,
			"count":2240,
			"max":[
				5.5169501304626465,
				0.639083981513977,
				-1.135254979133606
			],
			"min":[
				-5.3969879150390625,
				-0.639083981513977,
				-12.713369369506836
			],
			"type":"VEC3"
		},
		{
			"bufferView":10,
			"componentType":5126,
			"count":2240,
			"type":"VEC3"
		},
		{
			"bufferView":11,
			"componentType":5123,
			"count":4512,
			"type":"SCALAR"
		}
	],
	"bufferViews":[
		{
			"buffer":0,
			"byteLength":9984,
			"byteOffset":0,
			"target":34962
		},
		{
			"buffer":0,
			"byteLength":9984,
			"byteOffset":9984,
			"target":34962
		},
		{
			"buffer":0,
			"byteLength":2928,
			"byteOffset":19968,
			"target":34963
		},
		{
			"buffer":0,
			"byteLength":8688,
			"byteOffset":22896,
			"target":34962
		},
		{
			"buffer":0,
			"byteLength":8688,
			"byteOffset":31584,
			"target":34962
		},
		{
			"buffer":0,
			"byteLength":2544,
			"byteOffset":40272,
			"target":34963
		},
		{
			"buffer":0,
			"byteLength":8064,
			"byteOffset":42816,
			"target":34962
		},
		{
			"buffer":0,
			"byteLength":8064,
			"byteOffset":50880,
			"target":34962
		},
		{
			"buffer":0,
			"byteLength":2496,
			"byteOffset":58944,
			"target":34963
		},
		{
			"buffer":0,
			"byteLength":26880,
			"byteOffset":61440,
			"target":34962
		},
		{
			"buffer":0,
			"byteLength":26880,
			"byteOffset":88320,
			"target":34962
		},
		{
			"buffer":0,
			"byteLength":9024,
			"byteOffset":115200,
			"target":34963
		}
	],
	"buffers":[
		{
			"byteLength":124224,
			"uri":"ferriswheel.bin"
		}
	]
}
