{
  "accessors": [
    {
      "bufferView": 2,
      "componentType": 5126,
      "count": 274,
      "max": [
        9.313462257385254,
        -47.40235137939453,
        74.98576354980469
      ],
      "min": [
        -9.313462257385254,
        -76.91199493408203,
        42.03514862060547
      ],
      "type": "VEC3"
    },
    {
      "bufferView": 2,
      "byteOffset": 3288,
      "componentType": 5126,
      "count": 274,
      "max": [
        1.0,
        1.0,
        0.9961720705032349
      ],
      "min": [
        -1.0,
        -0.949515163898468,
        -0.9961711764335632
      ],
      "type": "VEC3"
    },
    {
      "bufferView": 1,
      "componentType": 5126,
      "count": 274,
      "max": [
        1.0,
        0.9832473993301392
      ],
      "min": [
        0.0,
        0.0
      ],
      "type": "VEC2"
    },
    {
      "bufferView": 0,
      "componentType": 5125,
      "count": 672,
      "type": "SCALAR"
    },
    {
      "bufferView": 2,
      "byteOffset": 6576,
      "componentType": 5126,
      "count": 274,
      "max": [
        9.313462257385254,
        17.846784591674805,
        89.8560791015625
      ],
      "min": [
        -9.313462257385254,
        -11.662860870361328,
        56.90546417236328
      ],
      "type": "VEC3"
    },
    {
      "bufferView": 2,
      "byteOffset": 9864,
      "componentType": 5126,
      "count": 274,
      "max": [
        1.0,
        1.0,
        0.9961720108985901
      ],
      "min": [
        -1.0,
        -0.9495150446891785,
        -0.996171236038208
      ],
      "type": "VEC3"
    },
    {
      "bufferView": 1,
      "byteOffset": 2192,
      "componentType": 5126,
      "count": 274,
      "max": [
        1.0,
        0.9832473993301392
      ],
      "min": [
        0.0,
        0.0
      ],
      "type": "VEC2"
    },
    {
      "bufferView": 0,
      "byteOffset": 2688,
      "componentType": 5125,
      "count": 672,
      "type": "SCALAR"
    },
    {
      "bufferView": 2,
      "byteOffset": 13152,
      "componentType": 5126,
      "count": 274,
      "max": [
        9.313462257385254,
        18.027202606201172,
        -56.65449905395508
      ],
      "min": [
        -9.313462257385254,
        -11.482442855834961,
        -89.60511779785156
      ],
      "type": "VEC3"
    },
    {
      "bufferView": 2,
      "byteOffset": 16440,
      "componentType": 5126,
      "count": 274,
      "max": [
        1.0,
        1.0,
        0.996171236038208
      ],
      "min": [
        -1.0,
        -0.9495150446891785,
        -0.996171236038208
      ],
      "type": "VEC3"
    },
    {
      "bufferView": 1,
      "byteOffset": 4384,
      "componentType": 5126,
      "count": 274,
      "max": [
        1.0,
        0.9832473993301392
      ],
      "min": [
        0.0,
        0.0
      ],
      "type": "VEC2"
    },
    {
      "bufferView": 0,
      "byteOffset": 5376,
      "componentType": 5125,
      "count": 672,
      "type": "SCALAR"
    },
    {
      "bufferView": 2,
      "byteOffset": 19728,
      "componentType": 5126,
      "count": 274,
      "max": [
        9.313462257385254,
        -47.458091735839844,
        -41.48112487792969
      ],
      "min": [
        -9.313462257385254,
        -76.96774291992188,
        -74.4317398071289
      ],
      "type": "VEC3"
    },
    {
      "bufferView": 2,
      "byteOffset": 23016,
      "componentType": 5126,
      "count": 274,
      "max": [
        1.0,
        1.0,
        0.9961720108985901
      ],
      "min": [
        -1.0,
        -0.9495150446891785,
        -0.996171236038208
      ],
      "type": "VEC3"
    },
    {
      "bufferView": 1,
      "byteOffset": 6576,
      "componentType": 5126,
      "count": 274,
      "max": [
        1.0,
        0.9832473993301392
      ],
      "min": [
        0.0,
        0.0
      ],
      "type": "VEC2"
    },
    {
      "bufferView": 0,
      "byteOffset": 8064,
      "componentType": 5125,
      "count": 672,
      "type": "SCALAR"
    },
    {
      "bufferView": 2,
      "byteOffset": 26304,
      "componentType": 5126,
      "count": 274,
      "max": [
        9.313462257385254,
        -74.5112075805664,
        16.475303649902344
      ],
      "min": [
        -9.313462257385254,
        -104.02085876464844,
        -16.475311279296875
      ],
      "type": "VEC3"
    },
    {
      "bufferView": 2,
      "byteOffset": 29592,
      "componentType": 5126,
      "count": 274,
      "max": [
        1.0,
        1.0,
        0.9961720108985901
      ],
      "min": [
        -1.0,
        -0.9495150446891785,
        -0.996171236038208
      ],
      "type": "VEC3"
    },
    {
      "bufferView": 1,
      "byteOffset": 8768,
      "componentType": 5126,
      "count": 274,
      "max": [
        1.0,
        0.9832473993301392
      ],
      "min": [
        0.0,
        0.0
      ],
      "type": "VEC2"
    },
    {
      "bufferView": 0,
      "byteOffset": 10752,
      "componentType": 5125,
      "count": 672,
      "type": "SCALAR"
    },
    {
      "bufferView": 2,
      "byteOffset": 32880,
      "componentType": 5126,
      "count": 274,
      "max": [
        9.313462257385254,
        68.84844970703125,
        49.57901382446289
      ],
      "min": [
        -9.313462257385254,
        39.338809967041016,
        16.628398895263672
      ],
      "type": "VEC3"
    },
    {
      "bufferView": 2,
      "byteOffset": 36168,
      "componentType": 5126,
      "count": 274,
      "max": [
        1.0,
        1.0,
        0.9961715936660767
      ],
      "min": [
        -1.0,
        -0.9495150446891785,
        -0.9961715936660767
      ],
      "type": "VEC3"
    },
    {
      "bufferView": 1,
      "byteOffset": 10960,
      "componentType": 5126,
      "count": 274,
      "max": [
        1.0,
        0.9832473993301392
      ],
      "min": [
        0.0,
        0.0
      ],
      "type": "VEC2"
    },
    {
      "bufferView": 0,
      "byteOffset": 13440,
      "componentType": 5125,
      "count": 672,
      "type": "SCALAR"
    },
    {
      "bufferView": 2,
      "byteOffset": 39456,
      "componentType": 5126,
      "count": 274,
      "max": [
        9.313462257385254,
        68.84844970703125,
        -16.548864364624023
      ],
      "min": [
        -9.313462257385254,
        39.338809967041016,
        -49.499473571777344
      ],
      "type": "VEC3"
    },
    {
      "bufferView": 2,
      "byteOffset": 42744,
      "componentType": 5126,
      "count": 274,
      "max": [
        1.0,
        1.0,
        0.9961720108985901
      ],
      "min": [
        -1.0,
        -0.9495150446891785,
        -0.9961715936660767
      ],
      "type": "VEC3"
    },
    {
      "bufferView": 1,
      "byteOffset": 13152,
      "componentType": 5126,
      "count": 274,
      "max": [
        1.0,
        0.9832473993301392
      ],
      "min": [
        0.0,
        0.0
      ],
      "type": "VEC2"
    },
    {
      "bufferView": 0,
      "byteOffset": 16128,
      "componentType": 5125,
      "count": 672,
      "type": "SCALAR"
    },
    {
      "bufferView": 2,
      "byteOffset": 46032,
      "componentType": 5126,
      "count": 1174,
      "max": [
        27.66844367980957,
        77.99820709228516,
        76.0426254272461
      ],
      "min": [
        -27.66844367980957,
        -120.95381164550781,
        -76.0426254272461
      ],
      "type": "VEC3"
    },
    {
      "bufferView": 2,
      "byteOffset": 60120,
      "componentType": 5126,
      "count": 1174,
      "max": [
        1.0,
        1.0,
        1.0
      ],
      "min": [
        -1.0,
        -1.0,
        -1.0
      ],
      "type": "VEC3"
    },
    {
      "bufferView": 1,
      "byteOffset": 15344,
      "componentType": 5126,
      "count": 1174,
      "max": [
        0.9853900074958801,
        0.9960760474205017
      ],
      "min": [
        0.011578853242099285,
        0.02839464321732521
      ],
      "type": "VEC2"
    },
    {
      "bufferView": 0,
      "byteOffset": 18816,
      "componentType": 5125,
      "count": 2328,
      "type": "SCALAR"
    }
  ],
  "asset": {
    "extras": {
      "author": "noortjeschuur (https://sketchfab.com/noortjeschuur)",
      "license": "CC-BY-4.0 (http://creativecommons.org/licenses/by/4.0/)",
      "source": "https://sketchfab.com/3d-models/ferris-wheel-09cc7c3403f9487ca0af0978f4e1274e",
      "title": "Ferris wheel"
    },
    "generator": "Sketchfab-12.68.0",
    "version": "2.0"
  },
  "bufferViews": [
    {
      "buffer": 0,
      "byteLength": 28128,
      "name": "floatBufferViews",
      "target": 34963
    },
    {
      "buffer": 0,
      "byteLength": 24736,
      "byteOffset": 28128,
      "byteStride": 8,
      "name": "floatBufferViews",
      "target": 34962
    },
    {
      "buffer": 0,
      "byteLength": 74208,
      "byteOffset": 52864,
      "byteStride": 12,
      "name": "floatBufferViews",
      "target": 34962
    }
  ],
  "buffers": [
    {
      "byteLength": 127072,
      "uri": "scene.bin"
    }
  ],
  "images": [
    {
      "uri": "textures/paal_baseColor.png"
    },
    {
      "uri": "textures/lambert6_baseColor.png"
    },
    {
      "uri": "textures/lambert6_emissive.png"
    }
  ],
  "materials": [
    {
      "doubleSided": true,
      "name": "paal",
      "pbrMetallicRoughness": {
        "baseColorTexture": {
          "index": 0
        },
        "metallicFactor": 0.0,
        "roughnessFactor": 0.6
      }
    },
    {
      "doubleSided": true,
      "emissiveFactor": [
        0.13807804747932811,
        0.13807804747932811,
        0.13807804747932811
      ],
      "emissiveTexture": {
        "index": 2
      },
      "name": "lambert6",
      "pbrMetallicRoughness": {
        "baseColorTexture": {
          "index": 1
        },
        "metallicFactor": 0.0,
        "roughnessFactor": 0.6
      }
    }
  ],
  "meshes": [
    {
      "name": "pCube67_paal_0",
      "primitives": [
        {
          "attributes": {
            "NORMAL": 1,
            "POSITION": 0,
            "TEXCOORD_0": 2
          },
          "indices": 3,
          "material": 0,
          "mode": 4
        }
      ]
    },
    {
      "name": "pCube68_paal_0",
      "primitives": [
        {
          "attributes": {
            "NORMAL": 5,
            "POSITION": 4,
            "TEXCOORD_0": 6
          },
          "indices": 7,
          "material": 0,
          "mode": 4
        }
      ]
    },
    {
      "name": "pCube71_paal_0",
      "primitives": [
        {
          "attributes": {
            "NORMAL": 9,
            "POSITION": 8,
            "TEXCOORD_0": 10
          },
          "indices": 11,
          "material": 0,
          "mode": 4
        }
      ]
    },
    {
      "name": "pCube72_paal_0",
      "primitives": [
        {
          "attributes": {
            "NORMAL": 13,
            "POSITION": 12,
            "TEXCOORD_0": 14
          },
          "indices": 15,
          "material": 0,
          "mode": 4
        }
      ]
    },
    {
      "name": "pCube73_paal_0",
      "primitives": [
        {
          "attributes": {
            "NORMAL": 17,
            "POSITION": 16,
            "TEXCOORD_0": 18
          },
          "indices": 19,
          "material": 0,
          "mode": 4
        }
      ]
    },
    {
      "name": "polySurface1_paal_0",
      "primitives": [
        {
          "attributes": {
            "NORMAL": 21,
            "POSITION": 20,
            "TEXCOORD_0": 22
          },
          "indices": 23,
          "material": 0,
          "mode": 4
        }
      ]
    },
    {
      "name": "polySurface3_paal_0",
      "primitives": [
        {
          "attributes": {
            "NORMAL": 25,
            "POSITION": 24,
            "TEXCOORD_0": 26
          },
          "indices": 27,
          "material": 0,
          "mode": 4
        }
      ]
    },
    {
      "name": "pCube74_lambert6_0",
      "primitives": [
        {
          "attributes": {
            "NORMAL": 29,
            "POSITION": 28,
            "TEXCOORD_0": 30
          },
          "indices": 31,
          "material": 1,
          "mode": 4
        }
      ]
    }
  ],
  "nodes": [
    {
      "children": [
        1
      ],
      "matrix": [
        1.0,
        0.0,
        0.0,
        0.0,
        0.0,
        2.220446049250313e-16,
        -1.0,
        0.0,
        0.0,
        1.0,
        2.220446049250313e-16,
        0.0,
        0.0,
        0.0,
        0.0,
        1.0
      ],
      "name": "Sketchfab_model"
    },
    {
      "children": [
        2
      ],
      "matrix": [
        0.009999999776482582,
        0.0,
        0.0,
        0.0,
        0.0,
        0.0,
        0.009999999776482582,
        0.0,
        0.0,
        -0.009999999776482582,
        0.0,
        0.0,
        0.0,
        0.0,
        0.0,
        1.0
      ],
      "name": "e229f8b9120c495aa8ee40d626698b01.fbx"
    },
    {
      "children": [
        3,
        5,
        7,
        9,
        11,
        13,
        15,
        17
      ],
      "name": "RootNode"
    },
    {
      "children": [
        4
      ],
      "name": "pCube67"
    },
    {
      "mesh": 0,
      "name": "pCube67_paal_0"
    },
    {
      "children": [
        6
      ],
      "name": "pCube68"
    },
    {
      "mesh": 1,
      "name": "pCube68_paal_0"
    },
    {
      "children": [
        8
      ],
      "name": "pCube71"
    },
    {
      "mesh": 2,
      "name": "pCube71_paal_0"
    },
    {
      "children": [
        10
      ],
      "name": "pCube72"
    },
    {
      "mesh": 3,
      "name": "pCube72_paal_0"
    },
    {
      "children": [
        12
      ],
      "name": "pCube73"
    },
    {
      "mesh": 4,
      "name": "pCube73_paal_0"
    },
    {
      "children": [
        14
      ],
      "name": "polySurface1"
    },
    {
      "mesh": 5,
      "name": "polySurface1_paal_0"
    },
    {
      "children": [
        16
      ],
      "name": "polySurface3"
    },
    {
      "mesh": 6,
      "name": "polySurface3_paal_0"
    },
    {
      "children": [
        18
      ],
      "name": "pCube74"
    },
    {
      "mesh": 7,
      "name": "pCube74_lambert6_0"
    }
  ],
  "samplers": [
    {
      "magFilter": 9729,
      "minFilter": 9987,
      "wrapS": 10497,
      "wrapT": 10497
    }
  ],
  "scene": 0,
  "scenes": [
    {
      "name": "Sketchfab_Scene",
      "nodes": [
        0
      ]
    }
  ],
  "textures": [
    {
      "sampler": 0,
      "source": 0
    },
    {
      "sampler": 0,
      "source": 1
    },
    {
      "sampler": 0,
      "source": 2
    }
  ]
}
