{
	"asset":{
		"generator":"Khronos glTF Blender I/O v4.0.44",
		"version":"2.0"
	},
	"extensionsUsed":[
		"KHR_materials_specular",
		"KHR_materials_ior"
	],
	"scene":0,
	"scenes":[
		{
			"name":"Scene",
			"nodes":[
				0
			]
		}
	],
	"nodes":[
		{
			"mesh":0,
			"name":"model",
			"rotation":[
				0.7071068286895752,
				0,
				0,
				0.7071068286895752
			]
		}
	],
	"materials":[
		{
			"doubleSided":true,
			"extensions":{
				"KHR_materials_specular":{
					"specularFactor":0
				},
				"KHR_materials_ior":{
					"ior":1.4500000476837158
				}
			},
			"name":"mat8",
			"pbrMetallicRoughness":{
				"baseColorFactor":[
					0.9100000262260437,
					0.05000000074505806,
					0.029999999329447746,
					1
				],
				"metallicFactor":0
			}
		},
		{
			"doubleSided":true,
			"extensions":{
				"KHR_materials_specular":{
					"specularFactor":0
				},
				"KHR_materials_ior":{
					"ior":1.4500000476837158
				}
			},
			"name":"mat21",
			"pbrMetallicRoughness":{
				"metallicFactor":0
			}
		},
		{
			"doubleSided":true,
			"extensions":{
				"KHR_materials_specular":{
					"specularFactor":0
				},
				"KHR_materials_ior":{
					"ior":1.4500000476837158
				}
			},
			"name":"mat23",
			"pbrMetallicRoughness":{
				"baseColorFactor":[
					0.009999999776482582,
					0.009999999776482582,
					0.009999999776482582,
					1
				],
				"metallicFactor":0
			}
		},
		{
			"doubleSided":true,
			"extensions":{
				"KHR_materials_specular":{
					"specularFactor":0
				},
				"KHR_materials_ior":{
					"ior":1.4500000476837158
				}
			},
			"name":"mat12",
			"pbrMetallicRoughness":{
				"baseColorFactor":[
					1,
					0.8299999833106995,
					0.03999999910593033,
					1
				],
				"metallicFactor":0
			}
		}
	],
	"meshes":[
		{
			"name":"model",
			"primitives":[
				{
					"attributes":{
						"POSITION":0,
						"NORMAL":1
					},
					"indices":2,
					"material":0
				},
				{
					"attributes":{
						"POSITION":3,
						"NORMAL":4
					},
					"indices":2,
					"material":1
				},
				{
					"attributes":{
						"POSITION":5,
						"NORMAL":6
					},
					"indices":7,
					"material":2
				},
				{
					"attributes":{
						"POSITION":8,
						"NORMAL":9
					},
					"indices":10,
					"material":3
				}
			]
		}
	],
	"accessors":[
		{
			"bufferView":0,
			"componentType":5126,
			"count":90,
			"max":[
				0.17493610084056854,
				0.17976120114326477,
				0.41973549127578735
			],
			"min":[
				-0.17506399750709534,
				-0.18023890256881714,
				-0.13026480376720428
			],
			"type":"VEC3"
		},
		{
			"bufferView":1,
			"componentType":5126,
			"count":90,
			"type":"VEC3"
		},
		{
			"bufferView":2,
			"componentType":5123,
			"count":126,
			"type":"SCALAR"
		},
		{
			"bufferView":3,
			"componentType":5126,
			"count":90,
			"max":[
				0.17493610084056854,
				0.17976120114326477,
				0.41973549127578735
			],
			"min":[
				-0.17506399750709534,
				-0.18023890256881714,
				-0.13026480376720428
			],
			"type":"VEC3"
		},
		{
			"bufferView":4,
			"componentType":5126,
			"count":90,
			"type":"VEC3"
		},
		{
			"bufferView":5,
			"componentType":5126,
			"count":12,
			"max":[
				0.17493599653244019,
				0.1797610968351364,
				0.41973549127578735
			],
			"min":[
				-0.17506399750709534,
				-0.18023890256881714,
				0.4197354018688202
			],
			"type":"VEC3"
		},
		{
			"bufferView":6,
			"componentType":5126,
			"count":12,
			"type":"VEC3"
		},
		{
			"bufferView":7,
			"componentType":5123,
			"count":30,
			"type":"SCALAR"
		},
		{
			"bufferView":8,
			"componentType":5126,
			"count":408,
			"max":[
				0.01499330997467041,
				0.015171710401773453,
				-0.13026480376720428
			],
			"min":[
				-0.014865400269627571,
				-0.014693990349769592,
				-0.15920570492744446
			],
			"type":"VEC3"
		},
		{
			"bufferView":9,
			"componentType":5126,
			"count":408,
			"type":"VEC3"
		},
		{
			"bufferView":10,
			"componentType":5123,
			"count":576,
			"type":"SCALAR"
		}
	],
	"bufferViews":[
		{
			"buffer":0,
			"byteLength":1080,
			"byteOffset":0,
			"target":34962
		},
		{
			"buffer":0,
			"byteLength":1080,
			"byteOffset":1080,
			"target":34962
		},
		{
			"buffer":0,
			"byteLength":252,
			"byteOffset":2160,
			"target":34963
		},
		{
			"buffer":0,
			"byteLength":1080,
			"byteOffset":2412,
			"target":34962
		},
		{
			"buffer":0,
			"byteLength":1080,
			"byteOffset":3492,
			"target":34962
		},
		{
			"buffer":0,
			"byteLength":144,
			"byteOffset":4572,
			"target":34962
		},
		{
			"buffer":0,
			"byteLength":144,
			"byteOffset":4716,
			"target":34962
		},
		{
			"buffer":0,
			"byteLength":60,
			"byteOffset":4860,
			"target":34963
		},
		{
			"buffer":0,
			"byteLength":4896,
			"byteOffset":4920,
			"target":34962
		},
		{
			"buffer":0,
			"byteLength":4896,
			"byteOffset":9816,
			"target":34962
		},
		{
			"buffer":0,
			"byteLength":1152,
			"byteOffset":14712,
			"target":34963
		}
	],
	"buffers":[
		{
			"byteLength":15864,
			"uri":"bramblepoint.bin"
		}
	]
}
