{
	"asset":{
		"generator":"Khronos glTF Blender I/O v4.0.44",
		"version":"2.0"
	},
	"scene":0,
	"scenes":[
		{
			"name":"Scene",
			"nodes":[
				0,
				1,
				2,
				3,
				4
			]
		}
	],
	"nodes":[
		{
			"mesh":0,
			"name":"BackLeftWheel_Cylinder.001",
			"rotation":[
				0.7071068286895752,
				0,
				0,
				0.7071068286895752
			]
		},
		{
			"mesh":1,
			"name":"BackRightWheel_Cylinder.003",
			"rotation":[
				0.7071068286895752,
				0,
				0,
				0.7071068286895752
			]
		},
		{
			"mesh":2,
			"name":"Body_Cube.001",
			"rotation":[
				0.7071068286895752,
				0,
				0,
				0.7071068286895752
			]
		},
		{
			"mesh":3,
			"name":"FrontLeftWheel_Cylinder",
			"rotation":[
				0.7071068286895752,
				0,
				0,
				0.7071068286895752
			]
		},
		{
			"mesh":4,
			"name":"FrontRightWheel_Cylinder.002",
			"rotation":[
				0.7071068286895752,
				0,
				0,
				0.7071068286895752
			]
		}
	],
	"materials":[
		{
			"doubleSided":true,
			"name":"Material.008",
			"pbrMetallicRoughness":{
				"baseColorFactor":[
					0.020378999412059784,
					0.020378999412059784,
					0.020378999412059784,
					1
				],
				"metallicFactor":0,
				"roughnessFactor":0.4307900071144104
			}
		},
		{
			"doubleSided":true,
			"name":"Material.007",
			"pbrMetallicRoughness":{
				"baseColorFactor":[
					0.123710997402668,
					0.123710997402668,
					0.123710997402668,
					1
				],
				"metallicFactor":0,
				"roughnessFactor":0.4307900071144104
			}
		},
		{
			"doubleSided":true,
			"name":"Material.012",
			"pbrMetallicRoughness":{
				"baseColorFactor":[
					0.020378999412059784,
					0.020378999412059784,
					0.020378999412059784,
					1
				],
				"metallicFactor":0,
				"roughnessFactor":0.4307900071144104
			}
		},
		{
			"doubleSided":true,
			"name":"Material.011",
			"pbrMetallicRoughness":{
				"baseColorFactor":[
					0.123710997402668,
					0.123710997402668,
					0.123710997402668,
					1
				],
				"metallicFactor":0,
				"roughnessFactor":0.4307900071144104
			}
		},
		{
			"doubleSided":true,
			"name":"Material.001",
			"pbrMetallicRoughness":{
				"baseColorFactor":[
					0.800000011920929,
					0.01355000026524067,
					0.01578499935567379,
					1
				],
				"metallicFactor":0,
				"roughnessFactor":0.4307900071144104
			}
		},
		{
			"doubleSided":true,
			"name":"Material.004",
			"pbrMetallicRoughness":{
				"baseColorFactor":[
					0.800000011920929,
					0.800000011920929,
					0.800000011920929,
					1
				],
				"metallicFactor":0,
				"roughnessFactor":0.525658369064331
			}
		},
		{
			"doubleSided":true,
			"name":"Material.005",
			"pbrMetallicRoughness":{
				"baseColorFactor":[
					0.06997799873352051,
					0.06997799873352051,
					0.06997799873352051,
					1
				],
				"metallicFactor":0,
				"roughnessFactor":0.4307900071144104
			}
		},
		{
			"doubleSided":true,
			"name":"Material.006",
			"pbrMetallicRoughness":{
				"baseColorFactor":[
					0.49689701199531555,
					0.7321019768714905,
					0.800000011920929,
					1
				],
				"metallicFactor":0,
				"roughnessFactor":0.4307900071144104
			}
		},
		{
			"doubleSided":true,
			"name":"Material.002",
			"pbrMetallicRoughness":{
				"baseColorFactor":[
					0.020378999412059784,
					0.020378999412059784,
					0.020378999412059784,
					1
				],
				"metallicFactor":0,
				"roughnessFactor":0.4307900071144104
			}
		},
		{
			"doubleSided":true,
			"name":"Material.003",
			"pbrMetallicRoughness":{
				"baseColorFactor":[
					0.123710997402668,
					0.123710997402668,
					0.123710997402668,
					1
				],
				"metallicFactor":0,
				"roughnessFactor":0.4307900071144104
			}
		},
		{
			"doubleSided":true,
			"name":"Material.010",
			"pbrMetallicRoughness":{
				"baseColorFactor":[
					0.020378999412059784,
					0.020378999412059784,
					0.020378999412059784,
					1
				],
				"metallicFactor":0,
				"roughnessFactor":0.4307900071144104
			}
		},
		{
			"doubleSided":true,
			"name":"Material.009",
			"pbrMetallicRoughness":{
				"baseColorFactor":[
					0.123710997402668,
					0.123710997402668,
					0.123710997402668,
					1
				],
				"metallicFactor":0,
				"roughnessFactor":0.4307900071144104
			}
		}
	],
	"meshes":[
		{
			"name":"BackLeftWheel_Cylinder.001",
			"primitives":[
				{
					"attributes":{
						"POSITION":0,
						"NORMAL":1,
						"TEXCOORD_0":2
					},
					"indices":3,
					"material":0
				},
				{
					"attributes":{
						"POSITION":4,
						"NORMAL":5,
						"TEXCOORD_0":6
					},
					"indices":7,
					"material":1
				}
			]
		},
		{
			"name":"BackRightWheel_Cylinder.003",
			"primitives":[
				{
					"attributes":{
						"POSITION":8,
						"NORMAL":9,
						"TEXCOORD_0":10
					},
					"indices":11,
					"material":2
				},
				{
					"attributes":{
						"POSITION":12,
						"NORMAL":13,
						"TEXCOORD_0":14
					},
					"indices":7,
					"material":3
				}
			]
		},
		{
			"name":"Body_Cube.001",
			"primitives":[
				{
					"attributes":{
						"POSITION":15,
						"NORMAL":16,
						"TEXCOORD_0":17
					},
					"indices":18,
					"material":4
				},
				{
					"attributes":{
						"POSITION":19,
						"NORMAL":20,
						"TEXCOORD_0":21
					},
					"indices":22,
					"material":5
				},
				{
					"attributes":{
						"POSITION":23,
						"NORMAL":24,
						"TEXCOORD_0":25
					},
					"indices":26,
					"material":6
				},
				{
					"attributes":{
						"POSITION":27,
						"NORMAL":28,
						"TEXCOORD_0":29
					},
					"indices":30,
					"material":7
				}
			]
		},
		{
			"name":"FrontLeftWheel_Cylinder",
			"primitives":[
				{
					"attributes":{
						"POSITION":31,
						"NORMAL":32,
						"TEXCOORD_0":33
					},
					"indices":34,
					"material":8
				},
				{
					"attributes":{
						"POSITION":35,
						"NORMAL":36,
						"TEXCOORD_0":37
					},
					"indices":7,
					"material":9
				}
			]
		},
		{
			"name":"FrontRightWheel_Cylinder.002",
			"primitives":[
				{
					"attributes":{
						"POSITION":38,
						"NORMAL":39,
						"TEXCOORD_0":40
					},
					"indices":41,
					"material":10
				},
				{
					"attributes":{
						"POSITION":42,
						"NORMAL":43,
						"TEXCOORD_0":44
					},
					"indices":7,
					"material":11
				}
			]
		}
	],
	"accessors":[
		{
			"bufferView":0,
			"componentType":5126,
			"count":150,
			"max":[
				-0.36288800835609436,
				0.619268000125885,
				0.25738000869750977
			],
			"min":[
				-0.46395400166511536,
				0.3301500082015991,
				-0.017588000744581223
			],
			"type":"VEC3"
		},
		{
			"bufferView":1,
			"componentType":5126,
			"count":150,
			"type":"VEC3"
		},
		{
			"bufferView":2,
			"componentType":5126,
			"count":150,
			"type":"VEC2"
		},
		{
			"bufferView":3,
			"componentType":5123,
			"count":264,
			"type":"SCALAR"
		},
		{
			"bufferView":4,
			"componentType":5126,
			"count":10,
			"max":[
				-0.45468300580978394,
				0.5334349870681763,
				0.17574700713157654
			],
			"min":[
				-0.45468300580978394,
				0.4159829914569855,
				0.06404399871826172
			],
			"type":"VEC3"
		},
		{
			"bufferView":5,
			"componentType":5126,
			"count":10,
			"type":"VEC3"
		},
		{
			"bufferView":6,
			"componentType":5126,
			"count":10,
			"type":"VEC2"
		},
		{
			"bufferView":7,
			"componentType":5123,
			"count":24,
			"type":"SCALAR"
		},
		{
			"bufferView":8,
			"componentType":5126,
			"count":150,
			"max":[
				0.4645180106163025,
				0.6192420125007629,
				0.25738000869750977
			],
			"min":[
				0.3634519875049591,
				0.33012300729751587,
				-0.017588000744581223
			],
			"type":"VEC3"
		},
		{
			"bufferView":9,
			"componentType":5126,
			"count":150,
			"type":"VEC3"
		},
		{
			"bufferView":10,
			"componentType":5126,
			"count":150,
			"type":"VEC2"
		},
		{
			"bufferView":11,
			"componentType":5123,
			"count":264,
			"type":"SCALAR"
		},
		{
			"bufferView":12,
			"componentType":5126,
			"count":10,
			"max":[
				0.45524701476097107,
				0.533407986164093,
				0.17574700713157654
			],
			"min":[
				0.45524701476097107,
				0.4159559905529022,
				0.06404399871826172
			],
			"type":"VEC3"
		},
		{
			"bufferView":13,
			"componentType":5126,
			"count":10,
			"type":"VEC3"
		},
		{
			"bufferView":14,
			"componentType":5126,
			"count":10,
			"type":"VEC2"
		},
		{
			"bufferView":15,
			"componentType":5126,
			"count":1808,
			"max":[
				0.5328760147094727,
				0.8808159828186035,
				0.19046999514102936
			],
			"min":[
				-0.5325819849967957,
				-0.9937450289726257,
				-0.3217790126800537
			],
			"type":"VEC3"
		},
		{
			"bufferView":16,
			"componentType":5126,
			"count":1808,
			"type":"VEC3"
		},
		{
			"bufferView":17,
			"componentType":5126,
			"count":1808,
			"type":"VEC2"
		},
		{
			"bufferView":18,
			"componentType":5123,
			"count":3516,
			"type":"SCALAR"
		},
		{
			"bufferView":19,
			"componentType":5126,
			"count":20,
			"max":[
				0.416036993265152,
				0.8696820139884949,
				0.0324149988591671
			],
			"min":[
				-0.41574299335479736,
				-0.9156270027160645,
				-0.09045799821615219
			],
			"type":"VEC3"
		},
		{
			"bufferView":20,
			"componentType":5126,
			"count":20,
			"type":"VEC3"
		},
		{
			"bufferView":21,
			"componentType":5126,
			"count":20,
			"type":"VEC2"
		},
		{
			"bufferView":22,
			"componentType":5123,
			"count":36,
			"type":"SCALAR"
		},
		{
			"bufferView":23,
			"componentType":5126,
			"count":68,
			"max":[
				0.4222419857978821,
				0.8555560111999512,
				0.17969700694084167
			],
			"min":[
				-0.42194798588752747,
				-0.9857360124588013,
				-0.03393099829554558
			],
			"type":"VEC3"
		},
		{
			"bufferView":24,
			"componentType":5126,
			"count":68,
			"type":"VEC3"
		},
		{
			"bufferView":25,
			"componentType":5126,
			"count":68,
			"type":"VEC2"
		},
		{
			"bufferView":26,
			"componentType":5123,
			"count":108,
			"type":"SCALAR"
		},
		{
			"bufferView":27,
			"componentType":5126,
			"count":126,
			"max":[
				0.5245869755744934,
				0.5426210165023804,
				-0.12068100273609161
			],
			"min":[
				-0.5242930054664612,
				-0.3620080053806305,
				-0.298460990190506
			],
			"type":"VEC3"
		},
		{
			"bufferView":28,
			"componentType":5126,
			"count":126,
			"type":"VEC3"
		},
		{
			"bufferView":29,
			"componentType":5126,
			"count":126,
			"type":"VEC2"
		},
		{
			"bufferView":30,
			"componentType":5123,
			"count":252,
			"type":"SCALAR"
		},
		{
			"bufferView":31,
			"componentType":5126,
			"count":150,
			"max":[
				-0.36288800835609436,
				-0.4895339906215668,
				0.25738000869750977
			],
			"min":[
				-0.46395400166511536,
				-0.7786530256271362,
				-0.017588000744581223
			],
			"type":"VEC3"
		},
		{
			"bufferView":32,
			"componentType":5126,
			"count":150,
			"type":"VEC3"
		},
		{
			"bufferView":33,
			"componentType":5126,
			"count":150,
			"type":"VEC2"
		},
		{
			"bufferView":34,
			"componentType":5123,
			"count":264,
			"type":"SCALAR"
		},
		{
			"bufferView":35,
			"componentType":5126,
			"count":10,
			"max":[
				-0.45468300580978394,
				-0.5753679871559143,
				0.17574700713157654
			],
			"min":[
				-0.45468300580978394,
				-0.6928200125694275,
				0.06404399871826172
			],
			"type":"VEC3"
		},
		{
			"bufferView":36,
			"componentType":5126,
			"count":10,
			"type":"VEC3"
		},
		{
			"bufferView":37,
			"componentType":5126,
			"count":10,
			"type":"VEC2"
		},
		{
			"bufferView":38,
			"componentType":5126,
			"count":150,
			"max":[
				0.4645180106163025,
				-0.48956099152565,
				0.25738000869750977
			],
			"min":[
				0.3634519875049591,
				-0.7786800265312195,
				-0.017588000744581223
			],
			"type":"VEC3"
		},
		{
			"bufferView":39,
			"componentType":5126,
			"count":150,
			"type":"VEC3"
		},
		{
			"bufferView":40,
			"componentType":5126,
			"count":150,
			"type":"VEC2"
		},
		{
			"bufferView":41,
			"componentType":5123,
			"count":264,
			"type":"SCALAR"
		},
		{
			"bufferView":42,
			"componentType":5126,
			"count":10,
			"max":[
				0.45524701476097107,
				-0.5753939747810364,
				0.17574700713157654
			],
			"min":[
				0.45524701476097107,
				-0.6928460001945496,
				0.06404399871826172
			],
			"type":"VEC3"
		},
		{
			"bufferView":43,
			"componentType":5126,
			"count":10,
			"type":"VEC3"
		},
		{
			"bufferView":44,
			"componentType":5126,
			"count":10,
			"type":"VEC2"
		}
	],
	"bufferViews":[
		{
			"buffer":0,
			"byteLength":1800,
			"byteOffset":0,
			"target":34962
		},
		{
			"buffer":0,
			"byteLength":1800,
			"byteOffset":1800,
			"target":34962
		},
		{
			"buffer":0,
			"byteLength":1200,
			"byteOffset":3600,
			"target":34962
		},
		{
			"buffer":0,
			"byteLength":528,
			"byteOffset":4800,
			"target":34963
		},
		{
			"buffer":0,
			"byteLength":120,
			"byteOffset":5328,
			"target":34962
		},
		{
			"buffer":0,
			"byteLength":120,
			"byteOffset":5448,
			"target":34962
		},
		{
			"buffer":0,
			"byteLength":80,
			"byteOffset":5568,
			"target":34962
		},
		{
			"buffer":0,
			"byteLength":48,
			"byteOffset":5648,
			"target":34963
		},
		{
			"buffer":0,
			"byteLength":1800,
			"byteOffset":5696,
			"target":34962
		},
		{
			"buffer":0,
			"byteLength":1800,
			"byteOffset":7496,
			"target":34962
		},
		{
			"buffer":0,
			"byteLength":1200,
			"byteOffset":9296,
			"target":34962
		},
		{
			"buffer":0,
			"byteLength":528,
			"byteOffset":10496,
			"target":34963
		},
		{
			"buffer":0,
			"byteLength":120,
			"byteOffset":11024,
			"target":34962
		},
		{
			"buffer":0,
			"byteLength":120,
			"byteOffset":11144,
			"target":34962
		},
		{
			"buffer":0,
			"byteLength":80,
			"byteOffset":11264,
			"target":34962
		},
		{
			"buffer":0,
			"byteLength":21696,
			"byteOffset":11344,
			"target":34962
		},
		{
			"buffer":0,
			"byteLength":21696,
			"byteOffset":33040,
			"target":34962
		},
		{
			"buffer":0,
			"byteLength":14464,
			"byteOffset":54736,
			"target":34962
		},
		{
			"buffer":0,
			"byteLength":7032,
			"byteOffset":69200,
			"target":34963
		},
		{
			"buffer":0,
			"byteLength":240,
			"byteOffset":76232,
			"target":34962
		},
		{
			"buffer":0,
			"byteLength":240,
			"byteOffset":76472,
			"target":34962
		},
		{
			"buffer":0,
			"byteLength":160,
			"byteOffset":76712,
			"target":34962
		},
		{
			"buffer":0,
			"byteLength":72,
			"byteOffset":76872,
			"target":34963
		},
		{
			"buffer":0,
			"byteLength":816,
			"byteOffset":76944,
			"target":34962
		},
		{
			"buffer":0,
			"byteLength":816,
			"byteOffset":77760,
			"target":34962
		},
		{
			"buffer":0,
			"byteLength":544,
			"byteOffset":78576,
			"target":34962
		},
		{
			"buffer":0,
			"byteLength":216,
			"byteOffset":79120,
			"target":34963
		},
		{
			"buffer":0,
			"byteLength":1512,
			"byteOffset":79336,
			"target":34962
		},
		{
			"buffer":0,
			"byteLength":1512,
			"byteOffset":80848,
			"target":34962
		},
		{
			"buffer":0,
			"byteLength":1008,
			"byteOffset":82360,
			"target":34962
		},
		{
			"buffer":0,
			"byteLength":504,
			"byteOffset":83368,
			"target":34963
		},
		{
			"buffer":0,
			"byteLength":1800,
			"byteOffset":83872,
			"target":34962
		},
		{
			"buffer":0,
			"byteLength":1800,
			"byteOffset":85672,
			"target":34962
		},
		{
			"buffer":0,
			"byteLength":1200,
			"byteOffset":87472,
			"target":34962
		},
		{
			"buffer":0,
			"byteLength":528,
			"byteOffset":88672,
			"target":34963
		},
		{
			"buffer":0,
			"byteLength":120,
			"byteOffset":89200,
			"target":34962
		},
		{
			"buffer":0,
			"byteLength":120,
			"byteOffset":89320,
			"target":34962
		},
		{
			"buffer":0,
			"byteLength":80,
			"byteOffset":89440,
			"target":34962
		},
		{
			"buffer":0,
			"byteLength":1800,
			"byteOffset":89520,
			"target":34962
		},
		{
			"buffer":0,
			"byteLength":1800,
			"byteOffset":91320,
			"target":34962
		},
		{
			"buffer":0,
			"byteLength":1200,
			"byteOffset":93120,
			"target":34962
		},
		{
			"buffer":0,
			"byteLength":528,
			"byteOffset":94320,
			"target":34963
		},
		{
			"buffer":0,
			"byteLength":120,
			"byteOffset":94848,
			"target":34962
		},
		{
			"buffer":0,
			"byteLength":120,
			"byteOffset":94968,
			"target":34962
		},
		{
			"buffer":0,
			"byteLength":80,
			"byteOffset":95088,
			"target":34962
		}
	],
	"buffers":[
		{
			"byteLength":95168,
			"uri":"redcar.bin"
		}
	]
}
