{
	"asset":{
		"generator":"Khronos glTF Blender I/O v4.0.44",
		"version":"2.0"
	},
	"scene":0,
	"scenes":[
		{
			"name":"Scene",
			"nodes":[
				5,
				6,
				7,
				12,
				17,
				22,
				27
			]
		}
	],
	"nodes":[
		{
			"mesh":0,
			"name":"Plane_Imphenzia Colours.001_0"
		},
		{
			"mesh":1,
			"name":"Plane_Imphenzia Colours_0"
		},
		{
			"children":[
				0,
				1
			],
			"name":"Plane",
			"rotation":[
				-0.70710688829422,
				0,
				0,
				0.7071066498756409
			],
			"scale":[
				100,
				99.99999237060547,
				99.99999237060547
			]
		},
		{
			"children":[
				2
			],
			"name":"RootNode"
		},
		{
			"children":[
				3
			],
			"name":"220fc7d394924bba9426e8f438deaf2a.fbx",
			"rotation":[
				0.70710688829422,
				0,
				0,
				0.7071066498756409
			],
			"scale":[
				0.009999999776482582,
				0.010000000707805157,
				0.010000000707805157
			]
		},
		{
			"children":[
				4
			],
			"name":"Sketchfab_model",
			"rotation":[
				-0.70710688829422,
				0,
				0,
				0.7071066498756409
			]
		},
		{
			"name":"tmpParent.006",
			"translation":[
				-3.1649718284606934,
				0,
				0
			]
		},
		{
			"name":"tmpParent.007",
			"translation":[
				-3.1649718284606934,
				0,
				0
			]
		},
		{
			"mesh":2,
			"name":"Plane_Imphenzia Colours_0.001"
		},
		{
			"children":[
				8
			],
			"name":"Plane.001",
			"rotation":[
				-0.70710688829422,
				0,
				0,
				0.7071066498756409
			],
			"scale":[
				100,
				99.99999237060547,
				99.99999237060547
			]
		},
		{
			"children":[
				9
			],
			"name":"RootNode.001"
		},
		{
			"children":[
				10
			],
			"name":"220fc7d394924bba9426e8f438deaf2a.fbx.001",
			"rotation":[
				0.70710688829422,
				0,
				0,
				0.7071066498756409
			],
			"scale":[
				0.009999999776482582,
				0.010000000707805157,
				0.010000000707805157
			]
		},
		{
			"children":[
				11
			],
			"name":"Sketchfab_model.001",
			"rotation":[
				-0.70710688829422,
				0,
				0,
				0.7071066498756409
			],
			"translation":[
				2.8207504749298096,
				0,
				0
			]
		},
		{
			"mesh":3,
			"name":"Plane_Imphenzia Colours_0.002",
			"translation":[
				-0.08445978164672852,
				0,
				0
			]
		},
		{
			"children":[
				13
			],
			"name":"Plane.002",
			"rotation":[
				-0.70710688829422,
				0,
				0,
				0.7071066498756409
			],
			"scale":[
				100,
				99.99999237060547,
				99.99999237060547
			],
			"translation":[
				6.103515625e-05,
				0,
				0
			]
		},
		{
			"children":[
				14
			],
			"name":"RootNode.002",
			"translation":[
				6.103515625e-05,
				0,
				0
			]
		},
		{
			"children":[
				15
			],
			"name":"220fc7d394924bba9426e8f438deaf2a.fbx.002",
			"rotation":[
				0.70710688829422,
				0,
				0,
				0.7071066498756409
			],
			"scale":[
				0.009999999776482582,
				0.010000000707805157,
				0.010000000707805157
			]
		},
		{
			"children":[
				16
			],
			"name":"Sketchfab_model.002",
			"rotation":[
				-0.70710688829422,
				0,
				0,
				0.7071066498756409
			],
			"translation":[
				5.773102760314941,
				0,
				0
			]
		},
		{
			"mesh":4,
			"name":"Plane_Imphenzia Colours_0.003",
			"translation":[
				-0.08446025848388672,
				0,
				0
			]
		},
		{
			"children":[
				18
			],
			"name":"Plane.003",
			"rotation":[
				-0.70710688829422,
				0,
				0,
				0.7071066498756409
			],
			"scale":[
				100,
				99.99999237060547,
				99.99999237060547
			],
			"translation":[
				6.103515625e-05,
				0,
				0
			]
		},
		{
			"children":[
				19
			],
			"name":"RootNode.003",
			"translation":[
				6.103515625e-05,
				0,
				0
			]
		},
		{
			"children":[
				20
			],
			"name":"220fc7d394924bba9426e8f438deaf2a.fbx.003",
			"rotation":[
				0.70710688829422,
				0,
				0,
				0.7071066498756409
			],
			"scale":[
				0.009999999776482582,
				0.010000000707805157,
				0.010000000707805157
			]
		},
		{
			"children":[
				21
			],
			"name":"Sketchfab_model.003",
			"rotation":[
				-0.70710688829422,
				0,
				0,
				0.7071066498756409
			],
			"translation":[
				8.6391019821167,
				0,
				0
			]
		},
		{
			"mesh":5,
			"name":"Plane_Imphenzia Colours_0.004",
			"translation":[
				-0.08445930480957031,
				0,
				0
			]
		},
		{
			"children":[
				23
			],
			"name":"Plane.004",
			"rotation":[
				-0.70710688829422,
				0,
				0,
				0.7071066498756409
			],
			"scale":[
				100,
				99.99999237060547,
				99.99999237060547
			],
			"translation":[
				-0.0001220703125,
				0,
				0
			]
		},
		{
			"children":[
				24
			],
			"name":"RootNode.004",
			"translation":[
				-0.0001220703125,
				0,
				0
			]
		},
		{
			"children":[
				25
			],
			"name":"220fc7d394924bba9426e8f438deaf2a.fbx.004",
			"rotation":[
				0.70710688829422,
				0,
				0,
				0.7071066498756409
			],
			"scale":[
				0.009999999776482582,
				0.010000000707805157,
				0.010000000707805157
			]
		},
		{
			"children":[
				26
			],
			"name":"Sketchfab_model.004",
			"rotation":[
				-0.70710688829422,
				0,
				0,
				0.7071066498756409
			],
			"translation":[
				11.506315231323242,
				0,
				0
			]
		}
	],
	"materials":[
		{
			"doubleSided":true,
			"name":"Imphenzia_Colours.001",
			"pbrMetallicRoughness":{
				"baseColorFactor":[
					0.800000011920929,
					0.800000011920929,
					0.800000011920929,
					1
				],
				"metallicFactor":0,
				"roughnessFactor":0.7869835495948792
			}
		},
		{
			"doubleSided":true,
			"emissiveFactor":[
				1,
				1,
				1
			],
			"emissiveTexture":{
				"index":0
			},
			"name":"Imphenzia_Colours",
			"pbrMetallicRoughness":{
				"baseColorFactor":[
					0.800000011920929,
					0.800000011920929,
					0.800000011920929,
					1
				],
				"metallicFactor":0,
				"roughnessFactor":0.7869835495948792
			}
		},
		{
			"doubleSided":true,
			"emissiveFactor":[
				1,
				1,
				1
			],
			"emissiveTexture":{
				"index":1
			},
			"name":"Imphenzia_Colours.002",
			"pbrMetallicRoughness":{
				"baseColorFactor":[
					0.800000011920929,
					0.800000011920929,
					0.800000011920929,
					1
				],
				"metallicFactor":0,
				"roughnessFactor":0.7869835495948792
			}
		},
		{
			"doubleSided":true,
			"emissiveFactor":[
				1,
				1,
				1
			],
			"emissiveTexture":{
				"index":2
			},
			"name":"Imphenzia_Colours.003",
			"pbrMetallicRoughness":{
				"baseColorFactor":[
					0.800000011920929,
					0.800000011920929,
					0.800000011920929,
					1
				],
				"metallicFactor":0,
				"roughnessFactor":0.7869835495948792
			}
		},
		{
			"doubleSided":true,
			"emissiveFactor":[
				1,
				1,
				1
			],
			"emissiveTexture":{
				"index":3
			},
			"name":"Imphenzia_Colours.004",
			"pbrMetallicRoughness":{
				"baseColorFactor":[
					0.800000011920929,
					0.800000011920929,
					0.800000011920929,
					1
				],
				"metallicFactor":0,
				"roughnessFactor":0.7869835495948792
			}
		},
		{
			"doubleSided":true,
			"emissiveFactor":[
				1,
				1,
				1
			],
			"emissiveTexture":{
				"index":4
			},
			"name":"Imphenzia_Colours.005",
			"pbrMetallicRoughness":{
				"baseColorFactor":[
					0.800000011920929,
					0.800000011920929,
					0.800000011920929,
					1
				],
				"metallicFactor":0,
				"roughnessFactor":0.7869835495948792
			}
		}
	],
	"meshes":[
		{
			"name":"Plane_Imphenzia Colours.001_0",
			"primitives":[
				{
					"attributes":{
						"POSITION":0,
						"NORMAL":1,
						"TEXCOORD_0":2
					},
					"indices":3,
					"material":0
				}
			]
		},
		{
			"name":"Plane_Imphenzia Colours_0",
			"primitives":[
				{
					"attributes":{
						"POSITION":4,
						"NORMAL":5,
						"TEXCOORD_0":6
					},
					"indices":7,
					"material":1
				}
			]
		},
		{
			"name":"Plane_Imphenzia Colours_0.001",
			"primitives":[
				{
					"attributes":{
						"POSITION":8,
						"NORMAL":9,
						"TEXCOORD_0":10
					},
					"indices":7,
					"material":2
				}
			]
		},
		{
			"name":"Plane_Imphenzia Colours_0.002",
			"primitives":[
				{
					"attributes":{
						"POSITION":11,
						"NORMAL":12,
						"TEXCOORD_0":13
					},
					"indices":7,
					"material":3
				}
			]
		},
		{
			"name":"Plane_Imphenzia Colours_0.003",
			"primitives":[
				{
					"attributes":{
						"POSITION":14,
						"NORMAL":15,
						"TEXCOORD_0":16
					},
					"indices":7,
					"material":4
				}
			]
		},
		{
			"name":"Plane_Imphenzia Colours_0.004",
			"primitives":[
				{
					"attributes":{
						"POSITION":17,
						"NORMAL":18,
						"TEXCOORD_0":19
					},
					"indices":7,
					"material":5
				}
			]
		}
	],
	"textures":[
		{
			"sampler":0,
			"source":0
		},
		{
			"sampler":0,
			"source":0
		},
		{
			"sampler":0,
			"source":0
		},
		{
			"sampler":0,
			"source":0
		},
		{
			"sampler":0,
			"source":0
		}
	],
	"images":[
		{
			"mimeType":"image/png",
			"name":"Imphenzia_Colours_emissive",
			"uri":"Imphenzia_Colours_emissive.png"
		}
	],
	"accessors":[
		{
			"bufferView":0,
			"componentType":5126,
			"count":48,
			"max":[
				0.005932312458753586,
				1.4584434032440186,
				0.8262850046157837
			],
			"min":[
				-0.005932379513978958,
				1.4465787410736084,
				-0.832796037197113
			],
			"type":"VEC3"
		},
		{
			"bufferView":1,
			"componentType":5126,
			"count":48,
			"type":"VEC3"
		},
		{
			"bufferView":2,
			"componentType":5126,
			"count":48,
			"type":"VEC2"
		},
		{
			"bufferView":3,
			"componentType":5123,
			"count":192,
			"type":"SCALAR"
		},
		{
			"bufferView":4,
			"componentType":5126,
			"count":460,
			"max":[
				1.1033365726470947,
				1.4641938209533691,
				0.8329212665557861
			],
			"min":[
				-1.1035552024841309,
				-1.0006463527679443,
				-0.8329212665557861
			],
			"type":"VEC3"
		},
		{
			"bufferView":5,
			"componentType":5126,
			"count":460,
			"type":"VEC3"
		},
		{
			"bufferView":6,
			"componentType":5126,
			"count":460,
			"type":"VEC2"
		},
		{
			"bufferView":7,
			"componentType":5123,
			"count":2280,
			"type":"SCALAR"
		},
		{
			"bufferView":8,
			"componentType":5126,
			"count":460,
			"max":[
				1.1033365726470947,
				1.4641938209533691,
				0.8329212665557861
			],
			"min":[
				-1.1035552024841309,
				-1.0006463527679443,
				-0.8329212665557861
			],
			"type":"VEC3"
		},
		{
			"bufferView":9,
			"componentType":5126,
			"count":460,
			"type":"VEC3"
		},
		{
			"bufferView":10,
			"componentType":5126,
			"count":460,
			"type":"VEC2"
		},
		{
			"bufferView":11,
			"componentType":5126,
			"count":460,
			"max":[
				1.1033365726470947,
				1.4641938209533691,
				0.8329212665557861
			],
			"min":[
				-1.1035552024841309,
				-1.0006463527679443,
				-0.8329212665557861
			],
			"type":"VEC3"
		},
		{
			"bufferView":12,
			"componentType":5126,
			"count":460,
			"type":"VEC3"
		},
		{
			"bufferView":13,
			"componentType":5126,
			"count":460,
			"type":"VEC2"
		},
		{
			"bufferView":14,
			"componentType":5126,
			"count":460,
			"max":[
				1.1033365726470947,
				1.4641938209533691,
				0.8329212665557861
			],
			"min":[
				-1.1035552024841309,
				-1.0006463527679443,
				-0.8329212665557861
			],
			"type":"VEC3"
		},
		{
			"bufferView":15,
			"componentType":5126,
			"count":460,
			"type":"VEC3"
		},
		{
			"bufferView":16,
			"componentType":5126,
			"count":460,
			"type":"VEC2"
		},
		{
			"bufferView":17,
			"componentType":5126,
			"count":460,
			"max":[
				1.1033365726470947,
				1.4641938209533691,
				0.8329212665557861
			],
			"min":[
				-1.1035552024841309,
				-1.0006463527679443,
				-0.8329212665557861
			],
			"type":"VEC3"
		},
		{
			"bufferView":18,
			"componentType":5126,
			"count":460,
			"type":"VEC3"
		},
		{
			"bufferView":19,
			"componentType":5126,
			"count":460,
			"type":"VEC2"
		}
	],
	"bufferViews":[
		{
			"buffer":0,
			"byteLength":576,
			"byteOffset":0,
			"target":34962
		},
		{
			"buffer":0,
			"byteLength":576,
			"byteOffset":576,
			"target":34962
		},
		{
			"buffer":0,
			"byteLength":384,
			"byteOffset":1152,
			"target":34962
		},
		{
			"buffer":0,
			"byteLength":384,
			"byteOffset":1536,
			"target":34963
		},
		{
			"buffer":0,
			"byteLength":5520,
			"byteOffset":1920,
			"target":34962
		},
		{
			"buffer":0,
			"byteLength":5520,
			"byteOffset":7440,
			"target":34962
		},
		{
			"buffer":0,
			"byteLength":3680,
			"byteOffset":12960,
			"target":34962
		},
		{
			"buffer":0,
			"byteLength":4560,
			"byteOffset":16640,
			"target":34963
		},
		{
			"buffer":0,
			"byteLength":5520,
			"byteOffset":21200,
			"target":34962
		},
		{
			"buffer":0,
			"byteLength":5520,
			"byteOffset":26720,
			"target":34962
		},
		{
			"buffer":0,
			"byteLength":3680,
			"byteOffset":32240,
			"target":34962
		},
		{
			"buffer":0,
			"byteLength":5520,
			"byteOffset":35920,
			"target":34962
		},
		{
			"buffer":0,
			"byteLength":5520,
			"byteOffset":41440,
			"target":34962
		},
		{
			"buffer":0,
			"byteLength":3680,
			"byteOffset":46960,
			"target":34962
		},
		{
			"buffer":0,
			"byteLength":5520,
			"byteOffset":50640,
			"target":34962
		},
		{
			"buffer":0,
			"byteLength":5520,
			"byteOffset":56160,
			"target":34962
		},
		{
			"buffer":0,
			"byteLength":3680,
			"byteOffset":61680,
			"target":34962
		},
		{
			"buffer":0,
			"byteLength":5520,
			"byteOffset":65360,
			"target":34962
		},
		{
			"buffer":0,
			"byteLength":5520,
			"byteOffset":70880,
			"target":34962
		},
		{
			"buffer":0,
			"byteLength":3680,
			"byteOffset":76400,
			"target":34962
		}
	],
	"samplers":[
		{
			"magFilter":9729,
			"minFilter":9987
		}
	],
	"buffers":[
		{
			"byteLength":80080,
			"uri":"whitetent.bin"
		}
	]
}
