{
	"asset":{
		"generator":"Khronos glTF Blender I/O v4.0.44",
		"version":"2.0"
	},
	"scene":0,
	"scenes":[
		{
			"name":"Scene",
			"nodes":[
				1,
				3,
				5,
				7,
				9,
				11,
				13,
				15
			]
		}
	],
	"nodes":[
		{
			"mesh":0,
			"name":"tent_detailedOpen",
			"translation":[
				1.3422245979309082,
				-0.05000000074505806,
				0
			]
		},
		{
			"children":[
				0
			],
			"name":"tmpParent"
		},
		{
			"mesh":1,
			"name":"tent_detailedOpen.001",
			"translation":[
				1.3422245979309082,
				-0.05000000074505806,
				0
			]
		},
		{
			"children":[
				2
			],
			"name":"tmpParent.001"
		},
		{
			"mesh":2,
			"name":"tent_detailedOpen.002",
			"translation":[
				1.3422245979309082,
				-0.05000000074505806,
				0
			]
		},
		{
			"children":[
				4
			],
			"name":"tmpParent.002",
			"translation":[
				-1.0559219121932983,
				0,
				0
			]
		},
		{
			"mesh":3,
			"name":"tent_detailedOpen.003",
			"translation":[
				1.3422245979309082,
				-0.05000000074505806,
				0
			]
		},
		{
			"children":[
				6
			],
			"name":"tmpParent.003",
			"translation":[
				-1.0559219121932983,
				0,
				0
			]
		},
		{
			"mesh":4,
			"name":"tent_detailedOpen.004",
			"translation":[
				1.3422245979309082,
				-0.05000000074505806,
				0
			]
		},
		{
			"children":[
				8
			],
			"name":"tmpParent.004",
			"translation":[
				-2.112417697906494,
				0,
				0
			]
		},
		{
			"mesh":5,
			"name":"tent_detailedOpen.005",
			"translation":[
				1.3422245979309082,
				-0.05000000074505806,
				0
			]
		},
		{
			"children":[
				10
			],
			"name":"tmpParent.005",
			"translation":[
				-2.112417697906494,
				0,
				0
			]
		},
		{
			"mesh":6,
			"name":"tent_detailedOpen.006",
			"translation":[
				1.3422245979309082,
				-0.05000000074505806,
				0
			]
		},
		{
			"children":[
				12
			],
			"name":"tmpParent.006",
			"translation":[
				-3.1649718284606934,
				0,
				0
			]
		},
		{
			"mesh":7,
			"name":"tent_detailedOpen.007",
			"translation":[
				1.3422245979309082,
				-0.05000000074505806,
				0
			]
		},
		{
			"children":[
				14
			],
			"name":"tmpParent.007",
			"translation":[
				-3.1649718284606934,
				0,
				0
			]
		}
	],
	"materials":[
		{
			"name":"colorRed",
			"pbrMetallicRoughness":{
				"baseColorFactor":[
					0.8784313797950745,
					0.29019609093666077,
					0.3137255012989044,
					1
				]
			}
		},
		{
			"name":"wood",
			"pbrMetallicRoughness":{
				"baseColorFactor":[
					1,
					0.5568627715110779,
					0.3843137323856354,
					1
				]
			}
		},
		{
			"name":"colorRed.001",
			"pbrMetallicRoughness":{
				"baseColorFactor":[
					0.8784313797950745,
					0.29019609093666077,
					0.3137255012989044,
					1
				]
			}
		},
		{
			"name":"wood.001",
			"pbrMetallicRoughness":{
				"baseColorFactor":[
					1,
					0.5568627715110779,
					0.3843137323856354,
					1
				]
			}
		},
		{
			"name":"colorRed.002",
			"pbrMetallicRoughness":{
				"baseColorFactor":[
					0.8784313797950745,
					0.29019609093666077,
					0.3137255012989044,
					1
				]
			}
		},
		{
			"name":"wood.002",
			"pbrMetallicRoughness":{
				"baseColorFactor":[
					1,
					0.5568627715110779,
					0.3843137323856354,
					1
				]
			}
		},
		{
			"name":"colorRed.003",
			"pbrMetallicRoughness":{
				"baseColorFactor":[
					0.8784313797950745,
					0.29019609093666077,
					0.3137255012989044,
					1
				]
			}
		},
		{
			"name":"wood.003",
			"pbrMetallicRoughness":{
				"baseColorFactor":[
					1,
					0.5568627715110779,
					0.3843137323856354,
					1
				]
			}
		},
		{
			"name":"colorRed.004",
			"pbrMetallicRoughness":{
				"baseColorFactor":[
					0.8784313797950745,
					0.29019609093666077,
					0.3137255012989044,
					1
				]
			}
		},
		{
			"name":"wood.004",
			"pbrMetallicRoughness":{
				"baseColorFactor":[
					1,
					0.5568627715110779,
					0.3843137323856354,
					1
				]
			}
		},
		{
			"name":"colorRed.005",
			"pbrMetallicRoughness":{
				"baseColorFactor":[
					0.8784313797950745,
					0.29019609093666077,
					0.3137255012989044,
					1
				]
			}
		},
		{
			"name":"wood.005",
			"pbrMetallicRoughness":{
				"baseColorFactor":[
					1,
					0.5568627715110779,
					0.3843137323856354,
					1
				]
			}
		},
		{
			"name":"colorRed.006",
			"pbrMetallicRoughness":{
				"baseColorFactor":[
					0.8784313797950745,
					0.29019609093666077,
					0.3137255012989044,
					1
				]
			}
		},
		{
			"name":"wood.006",
			"pbrMetallicRoughness":{
				"baseColorFactor":[
					1,
					0.5568627715110779,
					0.3843137323856354,
					1
				]
			}
		},
		{
			"name":"colorRed.007",
			"pbrMetallicRoughness":{
				"baseColorFactor":[
					0.8784313797950745,
					0.29019609093666077,
					0.3137255012989044,
					1
				]
			}
		},
		{
			"name":"wood.007",
			"pbrMetallicRoughness":{
				"baseColorFactor":[
					1,
					0.5568627715110779,
					0.3843137323856354,
					1
				]
			}
		}
	],
	"meshes":[
		{
			"name":"Mesh tent_detailedOpen",
			"primitives":[
				{
					"attributes":{
						"POSITION":0,
						"NORMAL":1,
						"TEXCOORD_0":2
					},
					"indices":3,
					"material":0
				},
				{
					"attributes":{
						"POSITION":4,
						"NORMAL":5,
						"TEXCOORD_0":6
					},
					"indices":7,
					"material":1
				}
			]
		},
		{
			"name":"Mesh tent_detailedOpen.001",
			"primitives":[
				{
					"attributes":{
						"POSITION":8,
						"NORMAL":9,
						"TEXCOORD_0":10
					},
					"indices":3,
					"material":2
				},
				{
					"attributes":{
						"POSITION":11,
						"NORMAL":12,
						"TEXCOORD_0":13
					},
					"indices":7,
					"material":3
				}
			]
		},
		{
			"name":"Mesh tent_detailedOpen.002",
			"primitives":[
				{
					"attributes":{
						"POSITION":14,
						"NORMAL":15,
						"TEXCOORD_0":16
					},
					"indices":3,
					"material":4
				},
				{
					"attributes":{
						"POSITION":17,
						"NORMAL":18,
						"TEXCOORD_0":19
					},
					"indices":7,
					"material":5
				}
			]
		},
		{
			"name":"Mesh tent_detailedOpen.003",
			"primitives":[
				{
					"attributes":{
						"POSITION":20,
						"NORMAL":21,
						"TEXCOORD_0":22
					},
					"indices":3,
					"material":6
				},
				{
					"attributes":{
						"POSITION":23,
						"NORMAL":24,
						"TEXCOORD_0":25
					},
					"indices":7,
					"material":7
				}
			]
		},
		{
			"name":"Mesh tent_detailedOpen.004",
			"primitives":[
				{
					"attributes":{
						"POSITION":26,
						"NORMAL":27,
						"TEXCOORD_0":28
					},
					"indices":3,
					"material":8
				},
				{
					"attributes":{
						"POSITION":29,
						"NORMAL":30,
						"TEXCOORD_0":31
					},
					"indices":7,
					"material":9
				}
			]
		},
		{
			"name":"Mesh tent_detailedOpen.005",
			"primitives":[
				{
					"attributes":{
						"POSITION":32,
						"NORMAL":33,
						"TEXCOORD_0":34
					},
					"indices":3,
					"material":10
				},
				{
					"attributes":{
						"POSITION":35,
						"NORMAL":36,
						"TEXCOORD_0":37
					},
					"indices":7,
					"material":11
				}
			]
		},
		{
			"name":"Mesh tent_detailedOpen.006",
			"primitives":[
				{
					"attributes":{
						"POSITION":38,
						"NORMAL":39,
						"TEXCOORD_0":40
					},
					"indices":3,
					"material":12
				},
				{
					"attributes":{
						"POSITION":41,
						"NORMAL":42,
						"TEXCOORD_0":43
					},
					"indices":7,
					"material":13
				}
			]
		},
		{
			"name":"Mesh tent_detailedOpen.007",
			"primitives":[
				{
					"attributes":{
						"POSITION":44,
						"NORMAL":45,
						"TEXCOORD_0":46
					},
					"indices":3,
					"material":14
				},
				{
					"attributes":{
						"POSITION":47,
						"NORMAL":48,
						"TEXCOORD_0":49
					},
					"indices":7,
					"material":15
				}
			]
		}
	],
	"accessors":[
		{
			"bufferView":0,
			"componentType":5126,
			"count":152,
			"max":[
				0.4090479910373688,
				0.5179999470710754,
				0.3181999921798706
			],
			"min":[
				-0.4090479910373688,
				-2.819966175498454e-16,
				-0.3481999933719635
			],
			"type":"VEC3"
		},
		{
			"bufferView":1,
			"componentType":5126,
			"count":152,
			"type":"VEC3"
		},
		{
			"bufferView":2,
			"componentType":5126,
			"count":152,
			"type":"VEC2"
		},
		{
			"bufferView":3,
			"componentType":5123,
			"count":360,
			"type":"SCALAR"
		},
		{
			"bufferView":4,
			"componentType":5126,
			"count":180,
			"max":[
				0.43746399879455566,
				0.5611308217048645,
				0.2897840142250061
			],
			"min":[
				-0.43746399879455566,
				-2.819966175498454e-16,
				-0.28859999775886536
			],
			"type":"VEC3"
		},
		{
			"bufferView":5,
			"componentType":5126,
			"count":180,
			"type":"VEC3"
		},
		{
			"bufferView":6,
			"componentType":5126,
			"count":180,
			"type":"VEC2"
		},
		{
			"bufferView":7,
			"componentType":5123,
			"count":336,
			"type":"SCALAR"
		},
		{
			"bufferView":8,
			"componentType":5126,
			"count":152,
			"max":[
				0.4090479910373688,
				0.5179999470710754,
				0.3181999921798706
			],
			"min":[
				-0.4090479910373688,
				-2.819966175498454e-16,
				-0.3481999933719635
			],
			"type":"VEC3"
		},
		{
			"bufferView":9,
			"componentType":5126,
			"count":152,
			"type":"VEC3"
		},
		{
			"bufferView":10,
			"componentType":5126,
			"count":152,
			"type":"VEC2"
		},
		{
			"bufferView":11,
			"componentType":5126,
			"count":180,
			"max":[
				0.43746399879455566,
				0.5611308217048645,
				0.2897840142250061
			],
			"min":[
				-0.43746399879455566,
				-2.819966175498454e-16,
				-0.28859999775886536
			],
			"type":"VEC3"
		},
		{
			"bufferView":12,
			"componentType":5126,
			"count":180,
			"type":"VEC3"
		},
		{
			"bufferView":13,
			"componentType":5126,
			"count":180,
			"type":"VEC2"
		},
		{
			"bufferView":14,
			"componentType":5126,
			"count":152,
			"max":[
				0.4090479910373688,
				0.5179999470710754,
				0.3181999921798706
			],
			"min":[
				-0.4090479910373688,
				-2.819966175498454e-16,
				-0.3481999933719635
			],
			"type":"VEC3"
		},
		{
			"bufferView":15,
			"componentType":5126,
			"count":152,
			"type":"VEC3"
		},
		{
			"bufferView":16,
			"componentType":5126,
			"count":152,
			"type":"VEC2"
		},
		{
			"bufferView":17,
			"componentType":5126,
			"count":180,
			"max":[
				0.43746399879455566,
				0.5611308217048645,
				0.2897840142250061
			],
			"min":[
				-0.43746399879455566,
				-2.819966175498454e-16,
				-0.28859999775886536
			],
			"type":"VEC3"
		},
		{
			"bufferView":18,
			"componentType":5126,
			"count":180,
			"type":"VEC3"
		},
		{
			"bufferView":19,
			"componentType":5126,
			"count":180,
			"type":"VEC2"
		},
		{
			"bufferView":20,
			"componentType":5126,
			"count":152,
			"max":[
				0.4090479910373688,
				0.5179999470710754,
				0.3181999921798706
			],
			"min":[
				-0.4090479910373688,
				-2.819966175498454e-16,
				-0.3481999933719635
			],
			"type":"VEC3"
		},
		{
			"bufferView":21,
			"componentType":5126,
			"count":152,
			"type":"VEC3"
		},
		{
			"bufferView":22,
			"componentType":5126,
			"count":152,
			"type":"VEC2"
		},
		{
			"bufferView":23,
			"componentType":5126,
			"count":180,
			"max":[
				0.43746399879455566,
				0.5611308217048645,
				0.2897840142250061
			],
			"min":[
				-0.43746399879455566,
				-2.819966175498454e-16,
				-0.28859999775886536
			],
			"type":"VEC3"
		},
		{
			"bufferView":24,
			"componentType":5126,
			"count":180,
			"type":"VEC3"
		},
		{
			"bufferView":25,
			"componentType":5126,
			"count":180,
			"type":"VEC2"
		},
		{
			"bufferView":26,
			"componentType":5126,
			"count":152,
			"max":[
				0.4090479910373688,
				0.5179999470710754,
				0.3181999921798706
			],
			"min":[
				-0.4090479910373688,
				-2.819966175498454e-16,
				-0.3481999933719635
			],
			"type":"VEC3"
		},
		{
			"bufferView":27,
			"componentType":5126,
			"count":152,
			"type":"VEC3"
		},
		{
			"bufferView":28,
			"componentType":5126,
			"count":152,
			"type":"VEC2"
		},
		{
			"bufferView":29,
			"componentType":5126,
			"count":180,
			"max":[
				0.43746399879455566,
				0.5611308217048645,
				0.2897840142250061
			],
			"min":[
				-0.43746399879455566,
				-2.819966175498454e-16,
				-0.28859999775886536
			],
			"type":"VEC3"
		},
		{
			"bufferView":30,
			"componentType":5126,
			"count":180,
			"type":"VEC3"
		},
		{
			"bufferView":31,
			"componentType":5126,
			"count":180,
			"type":"VEC2"
		},
		{
			"bufferView":32,
			"componentType":5126,
			"count":152,
			"max":[
				0.4090479910373688,
				0.5179999470710754,
				0.3181999921798706
			],
			"min":[
				-0.4090479910373688,
				-2.819966175498454e-16,
				-0.3481999933719635
			],
			"type":"VEC3"
		},
		{
			"bufferView":33,
			"componentType":5126,
			"count":152,
			"type":"VEC3"
		},
		{
			"bufferView":34,
			"componentType":5126,
			"count":152,
			"type":"VEC2"
		},
		{
			"bufferView":35,
			"componentType":5126,
			"count":180,
			"max":[
				0.43746399879455566,
				0.5611308217048645,
				0.2897840142250061
			],
			"min":[
				-0.43746399879455566,
				-2.819966175498454e-16,
				-0.28859999775886536
			],
			"type":"VEC3"
		},
		{
			"bufferView":36,
			"componentType":5126,
			"count":180,
			"type":"VEC3"
		},
		{
			"bufferView":37,
			"componentType":5126,
			"count":180,
			"type":"VEC2"
		},
		{
			"bufferView":38,
			"componentType":5126,
			"count":152,
			"max":[
				0.4090479910373688,
				0.5179999470710754,
				0.3181999921798706
			],
			"min":[
				-0.4090479910373688,
				-2.819966175498454e-16,
				-0.3481999933719635
			],
			"type":"VEC3"
		},
		{
			"bufferView":39,
			"componentType":5126,
			"count":152,
			"type":"VEC3"
		},
		{
			"bufferView":40,
			"componentType":5126,
			"count":152,
			"type":"VEC2"
		},
		{
			"bufferView":41,
			"componentType":5126,
			"count":180,
			"max":[
				0.43746399879455566,
				0.5611308217048645,
				0.2897840142250061
			],
			"min":[
				-0.43746399879455566,
				-2.819966175498454e-16,
				-0.28859999775886536
			],
			"type":"VEC3"
		},
		{
			"bufferView":42,
			"componentType":5126,
			"count":180,
			"type":"VEC3"
		},
		{
			"bufferView":43,
			"componentType":5126,
			"count":180,
			"type":"VEC2"
		},
		{
			"bufferView":44,
			"componentType":5126,
			"count":152,
			"max":[
				0.4090479910373688,
				0.5179999470710754,
				0.3181999921798706
			],
			"min":[
				-0.4090479910373688,
				-2.819966175498454e-16,
				-0.3481999933719635
			],
			"type":"VEC3"
		},
		{
			"bufferView":45,
			"componentType":5126,
			"count":152,
			"type":"VEC3"
		},
		{
			"bufferView":46,
			"componentType":5126,
			"count":152,
			"type":"VEC2"
		},
		{
			"bufferView":47,
			"componentType":5126,
			"count":180,
			"max":[
				0.43746399879455566,
				0.5611308217048645,
				0.2897840142250061
			],
			"min":[
				-0.43746399879455566,
				-2.819966175498454e-16,
				-0.28859999775886536
			],
			"type":"VEC3"
		},
		{
			"bufferView":48,
			"componentType":5126,
			"count":180,
			"type":"VEC3"
		},
		{
			"bufferView":49,
			"componentType":5126,
			"count":180,
			"type":"VEC2"
		}
	],
	"bufferViews":[
		{
			"buffer":0,
			"byteLength":1824,
			"byteOffset":0,
			"target":34962
		},
		{
			"buffer":0,
			"byteLength":1824,
			"byteOffset":1824,
			"target":34962
		},
		{
			"buffer":0,
			"byteLength":1216,
			"byteOffset":3648,
			"target":34962
		},
		{
			"buffer":0,
			"byteLength":720,
			"byteOffset":4864,
			"target":34963
		},
		{
			"buffer":0,
			"byteLength":2160,
			"byteOffset":5584,
			"target":34962
		},
		{
			"buffer":0,
			"byteLength":2160,
			"byteOffset":7744,
			"target":34962
		},
		{
			"buffer":0,
			"byteLength":1440,
			"byteOffset":9904,
			"target":34962
		},
		{
			"buffer":0,
			"byteLength":672,
			"byteOffset":11344,
			"target":34963
		},
		{
			"buffer":0,
			"byteLength":1824,
			"byteOffset":12016,
			"target":34962
		},
		{
			"buffer":0,
			"byteLength":1824,
			"byteOffset":13840,
			"target":34962
		},
		{
			"buffer":0,
			"byteLength":1216,
			"byteOffset":15664,
			"target":34962
		},
		{
			"buffer":0,
			"byteLength":2160,
			"byteOffset":16880,
			"target":34962
		},
		{
			"buffer":0,
			"byteLength":2160,
			"byteOffset":19040,
			"target":34962
		},
		{
			"buffer":0,
			"byteLength":1440,
			"byteOffset":21200,
			"target":34962
		},
		{
			"buffer":0,
			"byteLength":1824,
			"byteOffset":22640,
			"target":34962
		},
		{
			"buffer":0,
			"byteLength":1824,
			"byteOffset":24464,
			"target":34962
		},
		{
			"buffer":0,
			"byteLength":1216,
			"byteOffset":26288,
			"target":34962
		},
		{
			"buffer":0,
			"byteLength":2160,
			"byteOffset":27504,
			"target":34962
		},
		{
			"buffer":0,
			"byteLength":2160,
			"byteOffset":29664,
			"target":34962
		},
		{
			"buffer":0,
			"byteLength":1440,
			"byteOffset":31824,
			"target":34962
		},
		{
			"buffer":0,
			"byteLength":1824,
			"byteOffset":33264,
			"target":34962
		},
		{
			"buffer":0,
			"byteLength":1824,
			"byteOffset":35088,
			"target":34962
		},
		{
			"buffer":0,
			"byteLength":1216,
			"byteOffset":36912,
			"target":34962
		},
		{
			"buffer":0,
			"byteLength":2160,
			"byteOffset":38128,
			"target":34962
		},
		{
			"buffer":0,
			"byteLength":2160,
			"byteOffset":40288,
			"target":34962
		},
		{
			"buffer":0,
			"byteLength":1440,
			"byteOffset":42448,
			"target":34962
		},
		{
			"buffer":0,
			"byteLength":1824,
			"byteOffset":43888,
			"target":34962
		},
		{
			"buffer":0,
			"byteLength":1824,
			"byteOffset":45712,
			"target":34962
		},
		{
			"buffer":0,
			"byteLength":1216,
			"byteOffset":47536,
			"target":34962
		},
		{
			"buffer":0,
			"byteLength":2160,
			"byteOffset":48752,
			"target":34962
		},
		{
			"buffer":0,
			"byteLength":2160,
			"byteOffset":50912,
			"target":34962
		},
		{
			"buffer":0,
			"byteLength":1440,
			"byteOffset":53072,
			"target":34962
		},
		{
			"buffer":0,
			"byteLength":1824,
			"byteOffset":54512,
			"target":34962
		},
		{
			"buffer":0,
			"byteLength":1824,
			"byteOffset":56336,
			"target":34962
		},
		{
			"buffer":0,
			"byteLength":1216,
			"byteOffset":58160,
			"target":34962
		},
		{
			"buffer":0,
			"byteLength":2160,
			"byteOffset":59376,
			"target":34962
		},
		{
			"buffer":0,
			"byteLength":2160,
			"byteOffset":61536,
			"target":34962
		},
		{
			"buffer":0,
			"byteLength":1440,
			"byteOffset":63696,
			"target":34962
		},
		{
			"buffer":0,
			"byteLength":1824,
			"byteOffset":65136,
			"target":34962
		},
		{
			"buffer":0,
			"byteLength":1824,
			"byteOffset":66960,
			"target":34962
		},
		{
			"buffer":0,
			"byteLength":1216,
			"byteOffset":68784,
			"target":34962
		},
		{
			"buffer":0,
			"byteLength":2160,
			"byteOffset":70000,
			"target":34962
		},
		{
			"buffer":0,
			"byteLength":2160,
			"byteOffset":72160,
			"target":34962
		},
		{
			"buffer":0,
			"byteLength":1440,
			"byteOffset":74320,
			"target":34962
		},
		{
			"buffer":0,
			"byteLength":1824,
			"byteOffset":75760,
			"target":34962
		},
		{
			"buffer":0,
			"byteLength":1824,
			"byteOffset":77584,
			"target":34962
		},
		{
			"buffer":0,
			"byteLength":1216,
			"byteOffset":79408,
			"target":34962
		},
		{
			"buffer":0,
			"byteLength":2160,
			"byteOffset":80624,
			"target":34962
		},
		{
			"buffer":0,
			"byteLength":2160,
			"byteOffset":82784,
			"target":34962
		},
		{
			"buffer":0,
			"byteLength":1440,
			"byteOffset":84944,
			"target":34962
		}
	],
	"buffers":[
		{
			"byteLength":86384,
			"uri":"tent.bin"
		}
	]
}
