{
	"asset":{
		"generator":"Khronos glTF Blender I/O v4.0.44",
		"version":"2.0"
	},
	"extensionsUsed":[
		"KHR_materials_specular",
		"KHR_materials_ior"
	],
	"scene":0,
	"scenes":[
		{
			"name":"Scene",
			"nodes":[
				0
			]
		}
	],
	"nodes":[
		{
			"mesh":0,
			"name":"model",
			"rotation":[
				0.7071068286895752,
				0,
				0,
				0.7071068286895752
			]
		}
	],
	"materials":[
		{
			"doubleSided":true,
			"extensions":{
				"KHR_materials_specular":{
					"specularFactor":0
				},
				"KHR_materials_ior":{
					"ior":1.4500000476837158
				}
			},
			"name":"mat9",
			"pbrMetallicRoughness":{
				"baseColorFactor":[
					0.27000001072883606,
					0.550000011920929,
					0.07000000029802322,
					1
				],
				"metallicFactor":0
			}
		},
		{
			"doubleSided":true,
			"extensions":{
				"KHR_materials_specular":{
					"specularFactor":0
				},
				"KHR_materials_ior":{
					"ior":1.4500000476837158
				}
			},
			"name":"mat20",
			"pbrMetallicRoughness":{
				"baseColorFactor":[
					0.1899999976158142,
					0.09000000357627869,
					0.05999999865889549,
					1
				],
				"metallicFactor":0
			}
		}
	],
	"meshes":[
		{
			"name":"model",
			"primitives":[
				{
					"attributes":{
						"POSITION":0,
						"NORMAL":1
					},
					"indices":2,
					"material":0
				},
				{
					"attributes":{
						"POSITION":3,
						"NORMAL":4
					},
					"indices":5,
					"material":1
				}
			]
		}
	],
	"accessors":[
		{
			"bufferView":0,
			"componentType":5126,
			"count":2217,
			"max":[
				0.8045008182525635,
				0.8091123104095459,
				0.2919350862503052
			],
			"min":[
				-0.8455482125282288,
				-0.7111495733261108,
				-0.4949808120727539
			],
			"type":"VEC3"
		},
		{
			"bufferView":1,
			"componentType":5126,
			"count":2217,
			"type":"VEC3"
		},
		{
			"bufferView":2,
			"componentType":5123,
			"count":2442,
			"type":"SCALAR"
		},
		{
			"bufferView":3,
			"componentType":5126,
			"count":314,
			"max":[
				0.4986344873905182,
				0.5190672278404236,
				1.246567964553833
			],
			"min":[
				-0.6276823282241821,
				-0.44988390803337097,
				-0.21065209805965424
			],
			"type":"VEC3"
		},
		{
			"bufferView":4,
			"componentType":5126,
			"count":314,
			"type":"VEC3"
		},
		{
			"bufferView":5,
			"componentType":5123,
			"count":354,
			"type":"SCALAR"
		}
	],
	"bufferViews":[
		{
			"buffer":0,
			"byteLength":26604,
			"byteOffset":0,
			"target":34962
		},
		{
			"buffer":0,
			"byteLength":26604,
			"byteOffset":26604,
			"target":34962
		},
		{
			"buffer":0,
			"byteLength":4884,
			"byteOffset":53208,
			"target":34963
		},
		{
			"buffer":0,
			"byteLength":3768,
			"byteOffset":58092,
			"target":34962
		},
		{
			"buffer":0,
			"byteLength":3768,
			"byteOffset":61860,
			"target":34962
		},
		{
			"buffer":0,
			"byteLength":708,
			"byteOffset":65628,
			"target":34963
		}
	],
	"buffers":[
		{
			"byteLength":66336,
			"uri":"tree.bin"
		}
	]
}
