{
	"asset":{
		"generator":"Khronos glTF Blender I/O v4.0.44",
		"version":"2.0"
	},
	"extensionsUsed":[
		"KHR_materials_specular",
		"KHR_materials_ior"
	],
	"scene":0,
	"scenes":[
		{
			"name":"Scene",
			"nodes":[
				0
			]
		}
	],
	"nodes":[
		{
			"mesh":0,
			"name":"ferris_wheel",
			"rotation":[
				0.7071068286895752,
				0,
				0,
				0.7071068286895752
			]
		}
	],
	"materials":[
		{
			"doubleSided":true,
			"extensions":{
				"KHR_materials_specular":{
					"specularFactor":0
				},
				"KHR_materials_ior":{
					"ior":1
				}
			},
			"name":"_cabin_green",
			"pbrMetallicRoughness":{
				"baseColorTexture":{
					"index":0
				},
				"metallicFactor":0,
				"roughnessFactor":0.6900347471237183
			}
		},
		{
			"doubleSided":true,
			"extensions":{
				"KHR_materials_specular":{
					"specularFactor":0
				},
				"KHR_materials_ior":{
					"ior":1
				}
			},
			"name":"ferris_wheel_white",
			"pbrMetallicRoughness":{
				"baseColorTexture":{
					"index":1
				},
				"metallicFactor":0,
				"roughnessFactor":0.6900347471237183
			}
		},
		{
			"doubleSided":true,
			"extensions":{
				"KHR_materials_specular":{
					"specularFactor":0
				},
				"KHR_materials_ior":{
					"ior":1
				}
			},
			"name":"ferris_wheel_red",
			"pbrMetallicRoughness":{
				"baseColorTexture":{
					"index":2
				},
				"metallicFactor":0,
				"roughnessFactor":0.6900347471237183
			}
		},
		{
			"doubleSided":true,
			"extensions":{
				"KHR_materials_specular":{
					"specularFactor":0
				},
				"KHR_materials_ior":{
					"ior":1
				}
			},
			"name":"ferris_wheel_yellow",
			"pbrMetallicRoughness":{
				"baseColorTexture":{
					"index":3
				},
				"metallicFactor":0,
				"roughnessFactor":0.6900347471237183
			}
		},
		{
			"doubleSided":true,
			"extensions":{
				"KHR_materials_specular":{
					"specularFactor":0
				},
				"KHR_materials_ior":{
					"ior":1
				}
			},
			"name":"ferris_wheel_legs_red",
			"pbrMetallicRoughness":{
				"baseColorTexture":{
					"index":4
				},
				"metallicFactor":0,
				"roughnessFactor":0.6900347471237183
			}
		},
		{
			"doubleSided":true,
			"extensions":{
				"KHR_materials_specular":{
					"specularFactor":0
				},
				"KHR_materials_ior":{
					"ior":1
				}
			},
			"name":"ferris_wheel_blue",
			"pbrMetallicRoughness":{
				"baseColorTexture":{
					"index":5
				},
				"metallicFactor":0,
				"roughnessFactor":0.6900347471237183
			}
		},
		{
			"doubleSided":true,
			"extensions":{
				"KHR_materials_specular":{
					"specularFactor":0
				},
				"KHR_materials_ior":{
					"ior":1
				}
			},
			"name":"ferris_wheel_orange",
			"pbrMetallicRoughness":{
				"baseColorTexture":{
					"index":6
				},
				"metallicFactor":0,
				"roughnessFactor":0.6900347471237183
			}
		},
		{
			"doubleSided":true,
			"extensions":{
				"KHR_materials_specular":{
					"specularFactor":0
				},
				"KHR_materials_ior":{
					"ior":1
				}
			},
			"name":"cabin_red",
			"pbrMetallicRoughness":{
				"baseColorTexture":{
					"index":7
				},
				"metallicFactor":0,
				"roughnessFactor":0.6900347471237183
			}
		},
		{
			"doubleSided":true,
			"extensions":{
				"KHR_materials_specular":{
					"specularFactor":0
				},
				"KHR_materials_ior":{
					"ior":1
				}
			},
			"name":"cabin_blue",
			"pbrMetallicRoughness":{
				"baseColorTexture":{
					"index":8
				},
				"metallicFactor":0,
				"roughnessFactor":0.6900347471237183
			}
		},
		{
			"doubleSided":true,
			"extensions":{
				"KHR_materials_specular":{
					"specularFactor":0
				},
				"KHR_materials_ior":{
					"ior":1
				}
			},
			"name":"cabin_orange",
			"pbrMetallicRoughness":{
				"baseColorTexture":{
					"index":9
				},
				"metallicFactor":0,
				"roughnessFactor":0.6900347471237183
			}
		}
	],
	"meshes":[
		{
			"name":"ferris_wheel",
			"primitives":[
				{
					"attributes":{
						"POSITION":0,
						"NORMAL":1,
						"TEXCOORD_0":2
					},
					"indices":3,
					"material":0
				},
				{
					"attributes":{
						"POSITION":4,
						"NORMAL":5,
						"TEXCOORD_0":6
					},
					"indices":7,
					"material":1
				},
				{
					"attributes":{
						"POSITION":8,
						"NORMAL":9,
						"TEXCOORD_0":10
					},
					"indices":11,
					"material":2
				},
				{
					"attributes":{
						"POSITION":12,
						"NORMAL":13,
						"TEXCOORD_0":14
					},
					"indices":15,
					"material":3
				},
				{
					"attributes":{
						"POSITION":16,
						"NORMAL":17,
						"TEXCOORD_0":18
					},
					"indices":19,
					"material":4
				},
				{
					"attributes":{
						"POSITION":20,
						"NORMAL":21,
						"TEXCOORD_0":22
					},
					"indices":23,
					"material":5
				},
				{
					"attributes":{
						"POSITION":24,
						"NORMAL":25,
						"TEXCOORD_0":26
					},
					"indices":27,
					"material":6
				},
				{
					"attributes":{
						"POSITION":28,
						"NORMAL":29,
						"TEXCOORD_0":30
					},
					"indices":31,
					"material":7
				},
				{
					"attributes":{
						"POSITION":32,
						"NORMAL":33,
						"TEXCOORD_0":34
					},
					"indices":35,
					"material":8
				},
				{
					"attributes":{
						"POSITION":36,
						"NORMAL":37,
						"TEXCOORD_0":38
					},
					"indices":39,
					"material":9
				}
			]
		}
	],
	"textures":[
		{
			"sampler":0,
			"source":0
		},
		{
			"sampler":0,
			"source":0
		},
		{
			"sampler":0,
			"source":0
		},
		{
			"sampler":0,
			"source":0
		},
		{
			"sampler":0,
			"source":0
		},
		{
			"sampler":0,
			"source":0
		},
		{
			"sampler":0,
			"source":0
		},
		{
			"sampler":0,
			"source":0
		},
		{
			"sampler":0,
			"source":0
		},
		{
			"sampler":0,
			"source":0
		}
	],
	"images":[
		{
			"mimeType":"image/png",
			"name":"PUSHILIN_ferris_wheel",
			"uri":"PUSHILIN_ferris_wheel.png"
		}
	],
	"accessors":[
		{
			"bufferView":0,
			"componentType":5126,
			"count":864,
			"max":[
				0.9824659824371338,
				0.11824599653482437,
				0.6315159797668457
			],
			"min":[
				-0.9945819973945618,
				-0.11631400138139725,
				-1.1022069454193115
			],
			"type":"VEC3"
		},
		{
			"bufferView":1,
			"componentType":5126,
			"count":864,
			"type":"VEC3"
		},
		{
			"bufferView":2,
			"componentType":5126,
			"count":864,
			"type":"VEC2"
		},
		{
			"bufferView":3,
			"componentType":5123,
			"count":1332,
			"type":"SCALAR"
		},
		{
			"bufferView":4,
			"componentType":5126,
			"count":576,
			"max":[
				0.9497249722480774,
				0.1520960032939911,
				0.8563960194587708
			],
			"min":[
				-0.9488250017166138,
				-0.1474130004644394,
				-1.0421539545059204
			],
			"type":"VEC3"
		},
		{
			"bufferView":5,
			"componentType":5126,
			"count":576,
			"type":"VEC3"
		},
		{
			"bufferView":6,
			"componentType":5126,
			"count":576,
			"type":"VEC2"
		},
		{
			"bufferView":7,
			"componentType":5123,
			"count":864,
			"type":"SCALAR"
		},
		{
			"bufferView":8,
			"componentType":5126,
			"count":768,
			"max":[
				0.9497249722480774,
				0.15735399723052979,
				0.8563960194587708
			],
			"min":[
				-0.9488250017166138,
				-0.1526709944009781,
				-1.0421539545059204
			],
			"type":"VEC3"
		},
		{
			"bufferView":9,
			"componentType":5126,
			"count":768,
			"type":"VEC3"
		},
		{
			"bufferView":10,
			"componentType":5126,
			"count":768,
			"type":"VEC2"
		},
		{
			"bufferView":11,
			"componentType":5123,
			"count":1152,
			"type":"SCALAR"
		},
		{
			"bufferView":12,
			"componentType":5126,
			"count":384,
			"max":[
				0.7388150095939636,
				0.15735399723052979,
				0.6454870104789734
			],
			"min":[
				-0.7379159927368164,
				-0.1526709944009781,
				-0.8312439918518066
			],
			"type":"VEC3"
		},
		{
			"bufferView":13,
			"componentType":5126,
			"count":384,
			"type":"VEC3"
		},
		{
			"bufferView":14,
			"componentType":5126,
			"count":384,
			"type":"VEC2"
		},
		{
			"bufferView":15,
			"componentType":5123,
			"count":576,
			"type":"SCALAR"
		},
		{
			"bufferView":16,
			"componentType":5126,
			"count":72,
			"max":[
				0.9519760012626648,
				0.2847430109977722,
				1.157655954360962
			],
			"min":[
				-0.9510759711265564,
				-0.2863140106201172,
				-0.09287899732589722
			],
			"type":"VEC3"
		},
		{
			"bufferView":17,
			"componentType":5126,
			"count":72,
			"type":"VEC3"
		},
		{
			"bufferView":18,
			"componentType":5126,
			"count":72,
			"type":"VEC2"
		},
		{
			"bufferView":19,
			"componentType":5123,
			"count":120,
			"type":"SCALAR"
		},
		{
			"bufferView":20,
			"componentType":5126,
			"count":432,
			"max":[
				0.9605919718742371,
				0.014897000044584274,
				1.0947719812393188
			],
			"min":[
				-0.9540159702301025,
				-0.013306000269949436,
				-1.0955510139465332
			],
			"type":"VEC3"
		},
		{
			"bufferView":21,
			"componentType":5126,
			"count":432,
			"type":"VEC3"
		},
		{
			"bufferView":22,
			"componentType":5126,
			"count":432,
			"type":"VEC2"
		},
		{
			"bufferView":23,
			"componentType":5123,
			"count":720,
			"type":"SCALAR"
		},
		{
			"bufferView":24,
			"componentType":5126,
			"count":484,
			"max":[
				0.08172699809074402,
				0.23902100324630737,
				-0.011601000092923641
			],
			"min":[
				-0.08082800358533859,
				-0.24159500002861023,
				-0.17415699362754822
			],
			"type":"VEC3"
		},
		{
			"bufferView":25,
			"componentType":5126,
			"count":484,
			"type":"VEC3"
		},
		{
			"bufferView":26,
			"componentType":5126,
			"count":484,
			"type":"VEC2"
		},
		{
			"bufferView":27,
			"componentType":5123,
			"count":744,
			"type":"SCALAR"
		},
		{
			"bufferView":28,
			"componentType":5126,
			"count":864,
			"max":[
				0.9785370230674744,
				0.11824599653482437,
				1.0949879884719849
			],
			"min":[
				-0.9863229990005493,
				-0.11631400138139725,
				-0.6326410174369812
			],
			"type":"VEC3"
		},
		{
			"bufferView":29,
			"componentType":5126,
			"count":864,
			"type":"VEC3"
		},
		{
			"bufferView":30,
			"componentType":5126,
			"count":864,
			"type":"VEC2"
		},
		{
			"bufferView":31,
			"componentType":5123,
			"count":1332,
			"type":"SCALAR"
		},
		{
			"bufferView":32,
			"componentType":5126,
			"count":864,
			"max":[
				1.126405954360962,
				0.11824599653482437,
				0.9833430051803589
			],
			"min":[
				-0.6495500206947327,
				-0.11631400138139725,
				-0.969756007194519
			],
			"type":"VEC3"
		},
		{
			"bufferView":33,
			"componentType":5126,
			"count":864,
			"type":"VEC3"
		},
		{
			"bufferView":34,
			"componentType":5126,
			"count":864,
			"type":"VEC2"
		},
		{
			"bufferView":35,
			"componentType":5123,
			"count":1332,
			"type":"SCALAR"
		},
		{
			"bufferView":36,
			"componentType":5126,
			"count":864,
			"max":[
				0.6499750018119812,
				0.11824599653482437,
				0.9799460172653198
			],
			"min":[
				-1.119884967803955,
				-0.11631400138139725,
				-0.9609649777412415
			],
			"type":"VEC3"
		},
		{
			"bufferView":37,
			"componentType":5126,
			"count":864,
			"type":"VEC3"
		},
		{
			"bufferView":38,
			"componentType":5126,
			"count":864,
			"type":"VEC2"
		},
		{
			"bufferView":39,
			"componentType":5123,
			"count":1332,
			"type":"SCALAR"
		}
	],
	"bufferViews":[
		{
			"buffer":0,
			"byteLength":10368,
			"byteOffset":0,
			"target":34962
		},
		{
			"buffer":0,
			"byteLength":10368,
			"byteOffset":10368,
			"target":34962
		},
		{
			"buffer":0,
			"byteLength":6912,
			"byteOffset":20736,
			"target":34962
		},
		{
			"buffer":0,
			"byteLength":2664,
			"byteOffset":27648,
			"target":34963
		},
		{
			"buffer":0,
			"byteLength":6912,
			"byteOffset":30312,
			"target":34962
		},
		{
			"buffer":0,
			"byteLength":6912,
			"byteOffset":37224,
			"target":34962
		},
		{
			"buffer":0,
			"byteLength":4608,
			"byteOffset":44136,
			"target":34962
		},
		{
			"buffer":0,
			"byteLength":1728,
			"byteOffset":48744,
			"target":34963
		},
		{
			"buffer":0,
			"byteLength":9216,
			"byteOffset":50472,
			"target":34962
		},
		{
			"buffer":0,
			"byteLength":9216,
			"byteOffset":59688,
			"target":34962
		},
		{
			"buffer":0,
			"byteLength":6144,
			"byteOffset":68904,
			"target":34962
		},
		{
			"buffer":0,
			"byteLength":2304,
			"byteOffset":75048,
			"target":34963
		},
		{
			"buffer":0,
			"byteLength":4608,
			"byteOffset":77352,
			"target":34962
		},
		{
			"buffer":0,
			"byteLength":4608,
			"byteOffset":81960,
			"target":34962
		},
		{
			"buffer":0,
			"byteLength":3072,
			"byteOffset":86568,
			"target":34962
		},
		{
			"buffer":0,
			"byteLength":1152,
			"byteOffset":89640,
			"target":34963
		},
		{
			"buffer":0,
			"byteLength":864,
			"byteOffset":90792,
			"target":34962
		},
		{
			"buffer":0,
			"byteLength":864,
			"byteOffset":91656,
			"target":34962
		},
		{
			"buffer":0,
			"byteLength":576,
			"byteOffset":92520,
			"target":34962
		},
		{
			"buffer":0,
			"byteLength":240,
			"byteOffset":93096,
			"target":34963
		},
		{
			"buffer":0,
			"byteLength":5184,
			"byteOffset":93336,
			"target":34962
		},
		{
			"buffer":0,
			"byteLength":5184,
			"byteOffset":98520,
			"target":34962
		},
		{
			"buffer":0,
			"byteLength":3456,
			"byteOffset":103704,
			"target":34962
		},
		{
			"buffer":0,
			"byteLength":1440,
			"byteOffset":107160,
			"target":34963
		},
		{
			"buffer":0,
			"byteLength":5808,
			"byteOffset":108600,
			"target":34962
		},
		{
			"buffer":0,
			"byteLength":5808,
			"byteOffset":114408,
			"target":34962
		},
		{
			"buffer":0,
			"byteLength":3872,
			"byteOffset":120216,
			"target":34962
		},
		{
			"buffer":0,
			"byteLength":1488,
			"byteOffset":124088,
			"target":34963
		},
		{
			"buffer":0,
			"byteLength":10368,
			"byteOffset":125576,
			"target":34962
		},
		{
			"buffer":0,
			"byteLength":10368,
			"byteOffset":135944,
			"target":34962
		},
		{
			"buffer":0,
			"byteLength":6912,
			"byteOffset":146312,
			"target":34962
		},
		{
			"buffer":0,
			"byteLength":2664,
			"byteOffset":153224,
			"target":34963
		},
		{
			"buffer":0,
			"byteLength":10368,
			"byteOffset":155888,
			"target":34962
		},
		{
			"buffer":0,
			"byteLength":10368,
			"byteOffset":166256,
			"target":34962
		},
		{
			"buffer":0,
			"byteLength":6912,
			"byteOffset":176624,
			"target":34962
		},
		{
			"buffer":0,
			"byteLength":2664,
			"byteOffset":183536,
			"target":34963
		},
		{
			"buffer":0,
			"byteLength":10368,
			"byteOffset":186200,
			"target":34962
		},
		{
			"buffer":0,
			"byteLength":10368,
			"byteOffset":196568,
			"target":34962
		},
		{
			"buffer":0,
			"byteLength":6912,
			"byteOffset":206936,
			"target":34962
		},
		{
			"buffer":0,
			"byteLength":2664,
			"byteOffset":213848,
			"target":34963
		}
	],
	"samplers":[
		{
			"magFilter":9729,
			"minFilter":9987
		}
	],
	"buffers":[
		{
			"byteLength":216512,
			"uri":"untitled.bin"
		}
	]
}
